<?xml version="1.0" encoding="UTF-8"?>
<!DOCTYPE svg PUBLIC "-//W3C//DTD SVG 1.1//EN" "http://www.w3.org/Graphics/SVG/1.1/DTD/svg11.dtd">
<svg xmlns="http://www.w3.org/2000/svg" version="1.1" width="1080px" height="1080px" style="shape-rendering:geometricPrecision; text-rendering:geometricPrecision; image-rendering:optimizeQuality; fill-rule:evenodd; clip-rule:evenodd" xmlns:xlink="http://www.w3.org/1999/xlink">
<g><path style="opacity:0.819" fill="#fdfdfd" d="M 606.5,417.5 C 603.337,418.321 600.67,419.988 598.5,422.5C 594.317,421.171 590.484,421.837 587,424.5C 585.887,423.695 584.721,423.028 583.5,422.5C 590.313,379.455 606.48,340.122 632,304.5C 635.302,301.774 638.468,298.941 641.5,296C 646.5,295.333 651.5,295.333 656.5,296C 661.093,301.485 663.927,307.651 665,314.5C 661.103,317.112 657.103,319.445 653,321.5C 650.497,321.01 648.497,319.677 647,317.5C 644.163,322.509 641.329,327.509 638.5,332.5C 639.609,334.214 638.942,334.881 636.5,334.5C 630.777,345.446 625.444,356.613 620.5,368C 620.833,368.333 621.167,368.667 621.5,369C 615.55,381.49 611.716,394.323 610,407.5C 609.358,411.131 608.191,414.464 606.5,417.5 Z"/></g>
<g><path style="opacity:0.817" fill="#fdfdfd" d="M 392.5,477.5 C 391.781,479.764 391.448,482.097 391.5,484.5C 388.545,486.386 385.211,487.386 381.5,487.5C 381.785,490.829 381.118,493.829 379.5,496.5C 376.654,496.552 374.32,497.552 372.5,499.5C 371.476,496.037 370.809,492.37 370.5,488.5C 370.937,482.149 371.27,475.816 371.5,469.5C 361.721,473.714 355.388,470.714 352.5,460.5C 356.108,458.092 360.108,456.592 364.5,456C 367.503,454.834 370.17,453.167 372.5,451C 373.434,447.871 373.434,444.537 372.5,441C 374.689,440.323 375.022,439.156 373.5,437.5C 374.156,432.725 375.489,428.225 377.5,424C 376.949,422.602 376.616,421.268 376.5,420C 380.64,406.818 384.14,393.318 387,379.5C 393.121,361.626 402.288,344.959 414.5,329.5C 420.683,323.483 427.017,317.649 433.5,312C 442.995,307.728 452.662,307.394 462.5,311C 464.359,312.558 465.859,314.391 467,316.5C 472.498,333.075 472.498,349.742 467,366.5C 464.891,367.035 464.391,368.035 465.5,369.5C 458.551,385.739 449.384,401.073 438,415.5C 424.596,429.907 410.262,443.24 395,455.5C 394.375,462.732 393.542,470.065 392.5,477.5 Z M 446.5,323.5 C 448.22,325.658 449.053,328.325 449,331.5C 450.352,344.389 448.352,356.723 443,368.5C 433.243,392.691 418.576,413.358 399,430.5C 399.342,424.446 400.342,418.446 402,412.5C 402.489,409.018 403.655,405.851 405.5,403C 405.224,400.276 405.224,397.609 405.5,395C 410.147,375.183 418.314,356.683 430,339.5C 434.741,333.257 440.241,327.924 446.5,323.5 Z"/></g>
<g><path style="opacity:0.825" fill="#fbfbfb" d="M 769.5,318.5 C 768.702,320.886 767.702,323.22 766.5,325.5C 762.688,326.728 759.021,328.061 755.5,329.5C 752.091,329.249 748.758,329.583 745.5,330.5C 743.781,333.323 742.447,336.323 741.5,339.5C 739.563,342.006 736.896,343.506 733.5,344C 729.975,346.698 726.642,349.531 723.5,352.5C 717.054,344.141 716.887,335.474 723,326.5C 736.472,310.788 751.972,308.121 769.5,318.5 Z"/></g>
<g><path style="opacity:0.792" fill="#faf9f9" d="M 769.5,318.5 C 772.089,319.419 774.089,321.086 775.5,323.5C 775.586,324.496 775.252,325.329 774.5,326C 771.956,327.092 769.289,327.759 766.5,328C 764.465,330.268 762.132,332.101 759.5,333.5C 758.167,332.167 756.833,330.833 755.5,329.5C 759.021,328.061 762.688,326.728 766.5,325.5C 767.702,323.22 768.702,320.886 769.5,318.5 Z"/></g>
<g><path style="opacity:0.848" fill="#f7f5f5" d="M 775.5,323.5 C 778.691,326.871 780.858,330.871 782,335.5C 783.232,342.83 783.732,349.997 783.5,357C 782.619,357.708 781.953,358.542 781.5,359.5C 776.182,359.913 771.182,361.413 766.5,364C 760.355,368.644 754.355,373.477 748.5,378.5C 744.495,378.653 741.162,380.153 738.5,383C 731.623,385.305 724.79,386.805 718,387.5C 716.341,388.816 715.175,390.482 714.5,392.5C 709.57,392.803 704.737,392.469 700,391.5C 700.124,393.843 700.624,396.177 701.5,398.5C 700.753,401.822 701.086,405.155 702.5,408.5C 699.518,408.963 696.518,409.296 693.5,409.5C 692.725,411.612 692.725,413.612 693.5,415.5C 693.448,422.689 691.782,429.355 688.5,435.5C 686.969,434.579 685.635,434.912 684.5,436.5C 682.517,428.154 680.851,419.654 679.5,411C 679.833,410.667 680.167,410.333 680.5,410C 679.433,404.017 678.6,398.184 678,392.5C 677.667,392.167 677.333,391.833 677,391.5C 674.262,392.482 671.428,393.148 668.5,393.5C 671.54,392.266 672.873,389.932 672.5,386.5C 672.5,386.167 672.5,385.833 672.5,385.5C 676.81,385.511 680.143,383.677 682.5,380C 685.177,379.751 687.51,378.751 689.5,377C 692.207,376.605 694.873,376.105 697.5,375.5C 698.167,375.5 698.5,375.167 698.5,374.5C 700.905,374.866 703.238,375.533 705.5,376.5C 712.586,376.411 719.586,376.411 726.5,376.5C 728.373,376.518 728.706,376.018 727.5,375C 741.06,375.507 751.393,370.173 758.5,359C 750.688,359.693 742.855,360.527 735,361.5C 733.073,360.139 730.906,359.306 728.5,359C 728.833,358.667 729.167,358.333 729.5,358C 727.959,356.629 726.625,355.129 725.5,353.5C 729.506,353.441 733.506,352.274 737.5,350C 738.249,348.266 738.749,346.433 739,344.5C 739.671,343.748 740.504,343.414 741.5,343.5C 741.735,344.097 742.235,344.43 743,344.5C 748.317,343.407 753.651,342.407 759,341.5C 759.772,341.645 760.439,341.978 761,342.5C 761.596,339.314 761.096,336.314 759.5,333.5C 762.132,332.101 764.465,330.268 766.5,328C 769.289,327.759 771.956,327.092 774.5,326C 775.252,325.329 775.586,324.496 775.5,323.5 Z"/></g>
<g><path style="opacity:0.849" fill="#fcfcfc" d="M 696.5,369.5 C 695.448,369.351 694.448,369.517 693.5,370C 692.696,371.771 691.529,373.271 690,374.5C 688.413,373.273 687.079,373.606 686,375.5C 685.586,375.043 685.086,374.709 684.5,374.5C 681.798,376.347 678.798,377.513 675.5,378C 674.219,380.427 673.219,382.927 672.5,385.5C 672.5,385.833 672.5,386.167 672.5,386.5C 667.81,387.138 663.144,387.971 658.5,389C 653.96,395.402 647.96,397.402 640.5,395C 639.5,396.667 638.5,398.333 637.5,400C 638.807,401.943 638.807,403.777 637.5,405.5C 634.656,404.449 631.656,404.449 628.5,405.5C 629.271,403.886 630.271,402.386 631.5,401C 630.427,399.584 630.427,398.25 631.5,397C 630.552,396.517 629.552,396.351 628.5,396.5C 628.491,394.692 628.991,393.025 630,391.5C 633.374,388.424 636.874,385.59 640.5,383C 648.831,366.5 656.998,350.333 665,334.5C 667.764,331.548 670.764,328.882 674,326.5C 678.398,325.863 682.732,326.53 687,328.5C 691.023,341.971 694.189,355.638 696.5,369.5 Z M 672.5,364.5 C 674.41,367.928 675.743,371.761 676.5,376C 673.166,376.781 669.833,377.114 666.5,377C 669.449,373.269 671.449,369.102 672.5,364.5 Z"/></g>
<g><path style="opacity:0.898" fill="#fdfdfd" d="M 174.5,572.5 C 168.991,576.837 165.491,582.504 164,589.5C 162.333,590.167 160.667,590.833 159,591.5C 157.842,595.981 156.009,600.147 153.5,604C 154.409,605.789 154.576,607.623 154,609.5C 153.014,610.171 151.847,610.171 150.5,609.5C 153.857,608.405 153.857,606.572 150.5,604C 150.833,603.667 151.167,603.333 151.5,603C 150.167,602.333 148.833,601.667 147.5,601C 148.624,600.751 149.624,600.251 150.5,599.5C 147.421,598.252 144.754,596.419 142.5,594C 145.999,592.296 149.666,590.962 153.5,590C 152.747,588.513 151.914,588.346 151,589.5C 150.326,587.483 149.159,585.817 147.5,584.5C 148.145,582.568 149.479,581.401 151.5,581C 148.241,579.735 145.574,577.735 143.5,575C 144.624,574.751 145.624,574.251 146.5,573.5C 146.043,572.702 145.376,572.369 144.5,572.5C 143.737,570.433 142.404,568.766 140.5,567.5C 144.448,566.316 148.448,565.316 152.5,564.5C 150.999,563.248 149.332,562.248 147.5,561.5C 146.421,563.543 144.754,564.876 142.5,565.5C 140.5,564.5 138.5,563.5 136.5,562.5C 134.548,564.533 132.382,564.866 130,563.5C 129.385,565.116 128.385,566.449 127,567.5C 124.088,565.097 120.921,564.097 117.5,564.5C 113.899,559.741 111.233,554.408 109.5,548.5C 109.833,547.833 110.167,547.167 110.5,546.5C 106.915,536.129 103.915,525.629 101.5,515C 101.645,513.774 101.978,512.607 102.5,511.5C 99.7775,491.324 100.277,471.324 104,451.5C 107.246,440.619 110.246,429.619 113,418.5C 119.384,404.063 127.551,390.73 137.5,378.5C 156.946,355.692 181.78,343.025 212,340.5C 214.757,340.638 217.59,340.972 220.5,341.5C 240.317,337.312 257.817,341.978 273,355.5C 274.75,358.246 275.75,361.246 276,364.5C 279.811,368.348 282.144,373.015 283,378.5C 282.853,383.051 283.02,387.217 283.5,391C 279.954,399.635 274.62,406.801 267.5,412.5C 266.914,412.291 266.414,411.957 266,411.5C 264.26,412.716 263.26,414.382 263,416.5C 262.439,415.978 261.772,415.645 261,415.5C 259.247,417.296 257.08,418.462 254.5,419C 253.296,423.037 250.629,425.537 246.5,426.5C 245.914,426.291 245.414,425.957 245,425.5C 244.101,428.95 242.101,429.95 239,428.5C 239.019,426.893 239.185,425.226 239.5,423.5C 238.022,423.762 236.689,423.429 235.5,422.5C 234.359,421.575 234.359,420.741 235.5,420C 233.579,419.64 231.912,418.806 230.5,417.5C 229.28,418.711 228.113,418.711 227,417.5C 226.713,415.109 226.213,412.776 225.5,410.5C 228.16,407.468 227.493,406.802 223.5,408.5C 222.263,408.444 221.263,407.944 220.5,407C 221.207,404.48 222.04,401.98 223,399.5C 228.946,394.166 231.446,387.499 230.5,379.5C 228.208,379.244 226.041,379.577 224,380.5C 222.562,379.282 220.895,378.615 219,378.5C 209.647,379.563 200.48,381.396 191.5,384C 177.623,399.586 167.79,417.419 162,437.5C 159.305,448.628 156.972,459.961 155,471.5C 152.367,495.701 154.534,519.367 161.5,542.5C 161.291,543.086 160.957,543.586 160.5,544C 163.741,554.235 168.407,563.735 174.5,572.5 Z"/></g>
<g><path style="opacity:0.912" fill="#faf9f9" d="M 741.5,339.5 C 741.5,340.833 741.5,342.167 741.5,343.5C 740.504,343.414 739.671,343.748 739,344.5C 738.749,346.433 738.249,348.266 737.5,350C 733.506,352.274 729.506,353.441 725.5,353.5C 724.508,353.672 723.842,353.338 723.5,352.5C 726.642,349.531 729.975,346.698 733.5,344C 736.896,343.506 739.563,342.006 741.5,339.5 Z"/></g>
<g><path style="opacity:0.807" fill="#f4f2f2" d="M 781.5,359.5 C 779.541,364.967 776.208,369.467 771.5,373C 755.53,387.935 736.53,394.435 714.5,392.5C 715.175,390.482 716.341,388.816 718,387.5C 724.79,386.805 731.623,385.305 738.5,383C 741.162,380.153 744.495,378.653 748.5,378.5C 754.355,373.477 760.355,368.644 766.5,364C 771.182,361.413 776.182,359.913 781.5,359.5 Z"/></g>
<g><path style="opacity:0.913" fill="#faf9f9" d="M 696.5,369.5 C 697.167,371.167 697.833,372.833 698.5,374.5C 697.833,374.5 697.5,374.833 697.5,375.5C 694.873,376.105 692.207,376.605 689.5,377C 687.51,378.751 685.177,379.751 682.5,380C 680.143,383.677 676.81,385.511 672.5,385.5C 673.219,382.927 674.219,380.427 675.5,378C 678.798,377.513 681.798,376.347 684.5,374.5C 685.086,374.709 685.586,375.043 686,375.5C 687.079,373.606 688.413,373.273 690,374.5C 691.529,373.271 692.696,371.771 693.5,370C 694.448,369.517 695.448,369.351 696.5,369.5 Z"/></g>
<g><path style="opacity:0.832" fill="#fcfcfc" d="M 571.5,430.5 C 568.684,429.87 566.018,430.536 563.5,432.5C 559.844,428.358 556.51,428.691 553.5,433.5C 552.167,433.5 550.833,433.5 549.5,433.5C 549.871,429.633 549.371,425.633 548,421.5C 546.747,427.156 544.913,432.823 542.5,438.5C 541.167,438.833 539.833,439.167 538.5,439.5C 537.751,437.754 536.417,436.754 534.5,436.5C 532.013,436.759 530.013,437.759 528.5,439.5C 525.366,441.293 522.033,442.626 518.5,443.5C 524.266,423.354 530.933,402.854 538.5,382C 537.518,376.61 539.851,373.277 545.5,372C 550.087,371.201 554.587,371.368 559,372.5C 563.212,386.288 566.878,400.288 570,414.5C 570.216,419.286 571.05,423.953 572.5,428.5C 572.457,429.416 572.124,430.083 571.5,430.5 Z"/></g>
<g><path style="opacity:0.879" fill="#f9f8f8" d="M 672.5,386.5 C 672.873,389.932 671.54,392.266 668.5,393.5C 664.473,394.139 660.473,394.972 656.5,396C 657.566,397.159 657.233,397.992 655.5,398.5C 653.712,398.215 652.045,398.548 650.5,399.5C 647.132,402.853 643.132,405.186 638.5,406.5C 637.833,406.5 637.5,406.167 637.5,405.5C 638.807,403.777 638.807,401.943 637.5,400C 638.5,398.333 639.5,396.667 640.5,395C 647.96,397.402 653.96,395.402 658.5,389C 663.144,387.971 667.81,387.138 672.5,386.5 Z"/></g>
<g><path style="opacity:0.784" fill="#f8f7f7" d="M 655.5,398.5 C 651.426,407.032 646.926,415.366 642,423.5C 640.47,427.09 639.136,430.757 638,434.5C 635.258,435.57 632.758,437.07 630.5,439C 628.35,440.59 626.017,441.257 623.5,441C 623.358,438.326 621.691,436.492 618.5,435.5C 616.883,433.368 616.383,431.035 617,428.5C 618.513,424.812 620.013,421.145 621.5,417.5C 622.822,417.33 623.989,417.663 625,418.5C 625.583,416.998 626.416,415.665 627.5,414.5C 631.799,412.51 635.466,409.843 638.5,406.5C 643.132,405.186 647.132,402.853 650.5,399.5C 652.045,398.548 653.712,398.215 655.5,398.5 Z"/></g>
<g><path style="opacity:0.718" fill="#faf8f8" d="M 637.5,405.5 C 637.5,406.167 637.833,406.5 638.5,406.5C 635.466,409.843 631.799,412.51 627.5,414.5C 626.416,415.665 625.583,416.998 625,418.5C 623.989,417.663 622.822,417.33 621.5,417.5C 623.993,413.593 626.327,409.593 628.5,405.5C 631.656,404.449 634.656,404.449 637.5,405.5 Z"/></g>
<g><path style="opacity:0.847" fill="#f5f3f3" d="M 702.5,408.5 C 702.5,409.5 702.5,410.5 702.5,411.5C 699.708,414.016 696.708,415.349 693.5,415.5C 692.725,413.612 692.725,411.612 693.5,409.5C 696.518,409.296 699.518,408.963 702.5,408.5 Z"/></g>
<g><path style="opacity:0.832" fill="#fcfbfb" d="M 469.5,451.5 C 468.626,450.475 467.459,449.808 466,449.5C 461.661,451.03 457.161,452.197 452.5,453C 449.529,456.596 445.862,457.43 441.5,455.5C 438.562,455.568 435.895,456.234 433.5,457.5C 432.25,457.423 431.417,456.756 431,455.5C 428.601,457.397 426.768,459.731 425.5,462.5C 422.116,462.66 418.783,462.327 415.5,461.5C 412.958,462.986 410.624,464.653 408.5,466.5C 414.652,441.871 428.985,424.038 451.5,413C 462.088,410.006 472.754,409.339 483.5,411C 489.9,413.564 493.567,418.398 494.5,425.5C 488.913,436.755 480.58,445.421 469.5,451.5 Z M 469.5,425.5 C 470.552,425.351 471.552,425.517 472.5,426C 466.646,434.198 459.312,440.531 450.5,445C 446.336,446.014 442.336,447.014 438.5,448C 442.602,440.734 447.935,434.567 454.5,429.5C 459.134,428.504 463.8,427.671 468.5,427C 469.056,426.617 469.389,426.117 469.5,425.5 Z"/></g>
<g><path style="opacity:0.87" fill="#f4f2f2" d="M 702.5,411.5 C 703.184,420.268 704.517,428.935 706.5,437.5C 704.736,449.323 702.069,460.657 698.5,471.5C 698.565,471.938 698.399,472.272 698,472.5C 696.491,469.994 694.991,467.494 693.5,465C 693.833,464.667 694.167,464.333 694.5,464C 690.234,455.165 686.901,445.998 684.5,436.5C 685.635,434.912 686.969,434.579 688.5,435.5C 691.782,429.355 693.448,422.689 693.5,415.5C 696.708,415.349 699.708,414.016 702.5,411.5 Z"/></g>
<g><path style="opacity:0.841" fill="#fcfcfc" d="M 324.5,515.5 C 324.735,516.097 325.235,516.43 326,516.5C 335.597,514.026 344.764,510.693 353.5,506.5C 351.875,510.071 352.209,513.404 354.5,516.5C 353.529,517.962 353.862,519.295 355.5,520.5C 355.137,521.183 354.804,521.85 354.5,522.5C 351.938,523.18 349.271,523.347 346.5,523C 345.965,525.109 344.965,525.609 343.5,524.5C 340.32,525.543 337.987,527.543 336.5,530.5C 336.167,530.5 335.833,530.5 335.5,530.5C 334.685,529.163 333.518,528.163 332,527.5C 329.056,528.257 326.056,528.923 323,529.5C 321.97,529.836 321.47,530.503 321.5,531.5C 319.453,531.511 317.453,531.844 315.5,532.5C 312.753,530.258 309.92,528.925 307,528.5C 306.333,529.167 305.667,529.833 305,530.5C 304.729,526.87 303.062,525.87 300,527.5C 298.956,526.377 298.29,525.044 298,523.5C 291.243,519.729 285.91,514.062 282,506.5C 276.136,509.902 269.969,512.736 263.5,515C 257.129,515.275 250.963,516.441 245,518.5C 244.002,515.766 242.168,514.099 239.5,513.5C 239.174,511.339 238.174,509.506 236.5,508C 240.752,502.976 246.086,500.809 252.5,501.5C 257.873,498.653 263.54,496.487 269.5,495C 272.173,493.999 274.507,492.499 276.5,490.5C 278.888,479.188 281.388,467.854 284,456.5C 287.629,449.619 291.629,442.952 296,436.5C 301.42,430.964 307.253,425.964 313.5,421.5C 323.861,417.577 334.195,417.577 344.5,421.5C 346.671,425.66 348.338,429.993 349.5,434.5C 342.262,449.597 332.429,462.93 320,474.5C 317.938,476.901 316.271,479.567 315,482.5C 310.028,487.061 305.195,491.727 300.5,496.5C 301.906,504.237 306.239,509.57 313.5,512.5C 317.229,513.348 320.896,514.348 324.5,515.5 Z M 323.5,435.5 C 324.239,435.369 324.906,435.536 325.5,436C 320.191,445.458 314.024,454.291 307,462.5C 308.94,451.28 314.44,442.28 323.5,435.5 Z"/></g>
<g><path style="opacity:0.815" fill="#faf8f9" d="M 606.5,417.5 C 606.794,422.324 605.794,426.991 603.5,431.5C 601.046,431.321 598.879,431.987 597,433.5C 596,433.167 595,432.833 594,432.5C 591.01,434.15 588.01,435.817 585,437.5C 583.586,436.587 582.086,436.587 580.5,437.5C 580.978,432.273 581.978,427.273 583.5,422.5C 584.721,423.028 585.887,423.695 587,424.5C 590.484,421.837 594.317,421.171 598.5,422.5C 600.67,419.988 603.337,418.321 606.5,417.5 Z"/></g>
<g><path style="opacity:1" fill="#f9f9f9" d="M 563.5,432.5 C 560.375,433.479 557.042,433.813 553.5,433.5C 556.51,428.691 559.844,428.358 563.5,432.5 Z"/></g>
<g><path style="opacity:0.813" fill="#faf9f9" d="M 571.5,430.5 C 571.963,433.482 572.296,436.482 572.5,439.5C 571.178,439.67 570.011,439.337 569,438.5C 567.5,440 566,441.5 564.5,443C 561.076,442.095 558.409,443.262 556.5,446.5C 554.604,447.466 552.604,447.799 550.5,447.5C 549.873,442.859 549.54,438.193 549.5,433.5C 550.833,433.5 552.167,433.5 553.5,433.5C 557.042,433.813 560.375,433.479 563.5,432.5C 566.018,430.536 568.684,429.87 571.5,430.5 Z"/></g>
<g><path style="opacity:0.852" fill="#f8f7f7" d="M 603.5,431.5 C 601.485,441.728 599.985,452.061 599,462.5C 596.297,471.663 593.964,480.996 592,490.5C 590.459,492.477 589.959,494.477 590.5,496.5C 589.052,498.667 587.885,501 587,503.5C 584.417,504.874 581.917,506.374 579.5,508C 579.833,508.333 580.167,508.667 580.5,509C 577.487,509.502 574.487,510.002 571.5,510.5C 571.649,509.448 571.483,508.448 571,507.5C 566.193,503.885 562.859,499.218 561,493.5C 557.994,482.476 555.494,471.309 553.5,460C 554.116,455.605 553.116,451.438 550.5,447.5C 552.604,447.799 554.604,447.466 556.5,446.5C 558.409,443.262 561.076,442.095 564.5,443C 566,441.5 567.5,440 569,438.5C 570.011,439.337 571.178,439.67 572.5,439.5C 573.086,446.265 574.253,452.931 576,459.5C 577.055,456.457 577.222,453.457 576.5,450.5C 578.372,445.958 579.706,441.625 580.5,437.5C 582.086,436.587 583.586,436.587 585,437.5C 588.01,435.817 591.01,434.15 594,432.5C 595,432.833 596,433.167 597,433.5C 598.879,431.987 601.046,431.321 603.5,431.5 Z"/></g>
<g><path style="opacity:0.994" fill="#faf9f9" d="M 538.5,439.5 C 535.368,440.012 532.035,440.012 528.5,439.5C 530.013,437.759 532.013,436.759 534.5,436.5C 536.417,436.754 537.751,437.754 538.5,439.5 Z"/></g>
<g><path style="opacity:0.765" fill="#f2f0f0" d="M 706.5,437.5 C 709.629,447.84 713.295,458.007 717.5,468C 713.259,472.624 707.925,475.457 701.5,476.5C 701.741,473.966 700.741,472.3 698.5,471.5C 702.069,460.657 704.736,449.323 706.5,437.5 Z"/></g>
<g><path style="opacity:0.839" fill="#faf9f9" d="M 542.5,438.5 C 541.99,441.539 541.323,444.539 540.5,447.5C 536.891,448.974 533.557,450.974 530.5,453.5C 525.58,453.151 520.58,453.151 515.5,453.5C 516.224,449.692 517.224,446.359 518.5,443.5C 522.033,442.626 525.366,441.293 528.5,439.5C 532.035,440.012 535.368,440.012 538.5,439.5C 539.833,439.167 541.167,438.833 542.5,438.5 Z"/></g>
<g><path style="opacity:0.776" fill="#f8f7f7" d="M 540.5,447.5 C 537.176,456.51 533.343,465.51 529,474.5C 524.013,482.467 519.013,490.467 514,498.5C 508.166,504.675 501.499,509.675 494,513.5C 489.389,512.993 485.889,511.66 483.5,509.5C 482.376,507.269 481.876,504.936 482,502.5C 485.519,500.045 489.185,497.711 493,495.5C 496.969,488.235 501.302,481.235 506,474.5C 509.256,467.338 512.422,460.338 515.5,453.5C 520.58,453.151 525.58,453.151 530.5,453.5C 533.557,450.974 536.891,448.974 540.5,447.5 Z"/></g>
<g><path style="opacity:0.766" fill="#faf8f8" d="M 469.5,451.5 C 461.07,458.208 451.403,462.208 440.5,463.5C 438.31,462.626 437.31,460.959 437.5,458.5C 435.901,458.768 434.568,458.434 433.5,457.5C 435.895,456.234 438.562,455.568 441.5,455.5C 445.862,457.43 449.529,456.596 452.5,453C 457.161,452.197 461.661,451.03 466,449.5C 467.459,449.808 468.626,450.475 469.5,451.5 Z"/></g>
<g><path style="opacity:0.806" fill="#f8f7f7" d="M 433.5,457.5 C 434.568,458.434 435.901,458.768 437.5,458.5C 437.31,460.959 438.31,462.626 440.5,463.5C 437.5,463.5 434.5,463.5 431.5,463.5C 429.107,478.697 435.441,483.53 450.5,478C 460.806,474.128 470.473,469.128 479.5,463C 482.839,463.813 486.172,463.646 489.5,462.5C 490.542,463.791 491.708,463.791 493,462.5C 495.431,465.417 496.598,468.75 496.5,472.5C 490.597,474.541 485.263,477.707 480.5,482C 472.79,486.187 464.79,489.853 456.5,493C 448.778,494.287 441.111,495.787 433.5,497.5C 432.289,496.726 432.289,495.893 433.5,495C 431.744,494.86 430.078,495.36 428.5,496.5C 427.646,495.478 426.646,494.645 425.5,494C 425.833,493.667 426.167,493.333 426.5,493C 425.065,493.311 423.732,493.145 422.5,492.5C 421.539,489.705 419.706,487.705 417,486.5C 412.025,481.548 409.525,475.548 409.5,468.5C 414.184,468.338 418.851,468.338 423.5,468.5C 424.731,467.349 424.731,466.183 423.5,465C 424.381,464.292 425.047,463.458 425.5,462.5C 426.768,459.731 428.601,457.397 431,455.5C 431.417,456.756 432.25,457.423 433.5,457.5 Z"/></g>
<g><path style="opacity:0.947" fill="#faf8f8" d="M 425.5,462.5 C 425.047,463.458 424.381,464.292 423.5,465C 424.731,466.183 424.731,467.349 423.5,468.5C 418.851,468.338 414.184,468.338 409.5,468.5C 408.662,468.158 408.328,467.492 408.5,466.5C 410.624,464.653 412.958,462.986 415.5,461.5C 418.783,462.327 422.116,462.66 425.5,462.5 Z"/></g>
<g><path style="opacity:0.004" fill="#f8f9f8" d="M 489.5,462.5 C 489.897,461.475 490.563,461.308 491.5,462C 490.906,462.464 490.239,462.631 489.5,462.5 Z"/></g>
<g><path style="opacity:0.862" fill="#faf8f9" d="M 392.5,477.5 C 392.472,484.479 392.806,491.479 393.5,498.5C 392.5,498.5 391.5,498.5 390.5,498.5C 390.421,505.211 390.421,511.711 390.5,518C 387.308,519.4 384.142,519.9 381,519.5C 380.076,522.081 380.576,524.581 382.5,527C 381.901,528.622 381.234,530.122 380.5,531.5C 379.883,531.389 379.383,531.056 379,530.5C 377.499,524.154 375.999,517.821 374.5,511.5C 368.137,516.059 361.471,520.059 354.5,523.5C 354.5,523.167 354.5,522.833 354.5,522.5C 354.804,521.85 355.137,521.183 355.5,520.5C 353.862,519.295 353.529,517.962 354.5,516.5C 352.209,513.404 351.875,510.071 353.5,506.5C 353.973,505.094 354.973,504.427 356.5,504.5C 362.879,503.718 369.045,503.718 375,504.5C 377.045,503.113 379.212,501.946 381.5,501C 380.418,499.67 379.751,498.17 379.5,496.5C 381.118,493.829 381.785,490.829 381.5,487.5C 385.211,487.386 388.545,486.386 391.5,484.5C 391.448,482.097 391.781,479.764 392.5,477.5 Z"/></g>
<g><path style="opacity:0.63" fill="#faf9f9" d="M 379.5,496.5 C 379.751,498.17 380.418,499.67 381.5,501C 379.212,501.946 377.045,503.113 375,504.5C 369.045,503.718 362.879,503.718 356.5,504.5C 360.841,500.66 365.841,499.66 371.5,501.5C 372.298,501.043 372.631,500.376 372.5,499.5C 374.32,497.552 376.654,496.552 379.5,496.5 Z"/></g>
<g><path style="opacity:0.812" fill="#f7f6f6" d="M 393.5,498.5 C 395.967,507.741 398.134,517.074 400,526.5C 405.864,537.202 414.364,544.869 425.5,549.5C 431.891,548.995 437.558,546.829 442.5,543C 447.219,541.705 451.885,541.205 456.5,541.5C 459.566,543.9 460.566,546.9 459.5,550.5C 454.69,554.463 449.69,558.296 444.5,562C 436.231,564.16 427.898,564.994 419.5,564.5C 417.813,564.76 416.313,565.427 415,566.5C 414.383,565.551 414.549,564.718 415.5,564C 411.575,565.351 408.908,564.018 407.5,560C 401.734,555.908 396.234,551.408 391,546.5C 387.28,541.62 383.78,536.62 380.5,531.5C 381.234,530.122 381.901,528.622 382.5,527C 380.576,524.581 380.076,522.081 381,519.5C 384.142,519.9 387.308,519.4 390.5,518C 390.421,511.711 390.421,505.211 390.5,498.5C 391.5,498.5 392.5,498.5 393.5,498.5 Z"/></g>
<g><path style="opacity:0.004" fill="#f9faf9" d="M 324.5,515.5 C 324.897,514.475 325.563,514.308 326.5,515C 325.906,515.464 325.239,515.631 324.5,515.5 Z"/></g>
<g><path style="opacity:0.787" fill="#fbfbfb" d="M 953.5,569.5 C 950.15,569.335 946.817,569.502 943.5,570C 941.265,572.985 938.598,573.818 935.5,572.5C 937.007,561.307 938.34,550.14 939.5,539C 938.874,538.25 938.374,537.416 938,536.5C 933.546,548.255 931.379,560.255 931.5,572.5C 929.074,573.308 926.741,574.308 924.5,575.5C 923.446,575.32 922.446,574.987 921.5,574.5C 919.302,576.098 916.969,577.431 914.5,578.5C 912.082,558.824 915.916,540.157 926,522.5C 934.449,514.234 943.282,513.9 952.5,521.5C 957.438,537.354 957.771,553.354 953.5,569.5 Z"/></g>
<g><path style="opacity:0.748" fill="#faf9f9" d="M 354.5,522.5 C 354.5,522.833 354.5,523.167 354.5,523.5C 348.954,526.937 342.954,529.271 336.5,530.5C 337.987,527.543 340.32,525.543 343.5,524.5C 344.965,525.609 345.965,525.109 346.5,523C 349.271,523.347 351.938,523.18 354.5,522.5 Z"/></g>
<g><path style="opacity:0.692" fill="#faf9f9" d="M 335.5,530.5 C 330.964,531.811 326.297,532.477 321.5,532.5C 321.5,532.167 321.5,531.833 321.5,531.5C 321.47,530.503 321.97,529.836 323,529.5C 326.056,528.923 329.056,528.257 332,527.5C 333.518,528.163 334.685,529.163 335.5,530.5 Z"/></g>
<g><path style="opacity:0.396" fill="#fafaf9" d="M 290.5,535.5 C 287.03,534.875 284.196,535.875 282,538.5C 279.29,536.445 276.624,536.112 274,537.5C 272.272,537.101 270.772,536.434 269.5,535.5C 271.583,534.971 273.417,533.971 275,532.5C 278.942,533.698 282.942,533.698 287,532.5C 289.275,532.278 290.441,533.278 290.5,535.5 Z"/></g>
<g><path style="opacity:0.008" fill="#faf9f9" d="M 321.5,532.5 C 321.103,533.525 320.437,533.692 319.5,533C 320.094,532.536 320.761,532.369 321.5,532.5 Z"/></g>
<g><path style="opacity:0.443" fill="#fafaf9" d="M 269.5,535.5 C 268.244,535.904 267.077,536.571 266,537.5C 264.862,537.011 263.695,536.678 262.5,536.5C 264.22,535.136 266.22,534.136 268.5,533.5C 269.298,533.957 269.631,534.624 269.5,535.5 Z"/></g>
<g><path style="opacity:0.718" fill="#fbf9fa" d="M 269.5,535.5 C 270.772,536.434 272.272,537.101 274,537.5C 276.624,536.112 279.29,536.445 282,538.5C 284.196,535.875 287.03,534.875 290.5,535.5C 293.167,535.833 295.833,536.167 298.5,536.5C 296.516,536.383 294.85,537.05 293.5,538.5C 289.485,537.102 285.819,537.769 282.5,540.5C 278.865,537.986 275.198,537.986 271.5,540.5C 268.215,538.867 264.882,538.534 261.5,539.5C 261.557,538.391 261.89,537.391 262.5,536.5C 263.695,536.678 264.862,537.011 266,537.5C 267.077,536.571 268.244,535.904 269.5,535.5 Z"/></g>
<g><path style="opacity:0.89" fill="#f9f8f9" d="M 298.5,536.5 C 297.898,539.735 297.898,543.069 298.5,546.5C 301.916,545.866 303.916,547.2 304.5,550.5C 300.261,571.087 289.927,589.087 273.5,604.5C 269.176,607.661 264.51,610.161 259.5,612C 251.2,619.639 241.866,625.639 231.5,630C 220.009,632.618 208.343,634.451 196.5,635.5C 179.128,633.317 164.795,625.65 153.5,612.5C 155.247,611.019 156.414,609.019 157,606.5C 157.346,603.424 158.012,600.424 159,597.5C 160.356,596.62 161.856,596.286 163.5,596.5C 164.723,588.017 169.723,583.35 178.5,582.5C 179.193,581.482 179.859,580.482 180.5,579.5C 184.615,582.113 188.282,585.279 191.5,589C 195.686,591.201 199.853,593.367 204,595.5C 213.751,595.596 222.917,592.93 231.5,587.5C 234.419,582.66 237.586,577.994 241,573.5C 244.271,563.023 248.438,553.023 253.5,543.5C 255.67,542.232 257.837,542.232 260,543.5C 260.41,542.099 260.91,540.766 261.5,539.5C 264.882,538.534 268.215,538.867 271.5,540.5C 275.198,537.986 278.865,537.986 282.5,540.5C 285.819,537.769 289.485,537.102 293.5,538.5C 294.85,537.05 296.516,536.383 298.5,536.5 Z"/></g>
<g><path style="opacity:0.004" fill="#f9f9f8" d="M 253.5,543.5 C 252.833,542.167 252.833,542.167 253.5,543.5 Z"/></g>
<g><path style="opacity:0.744" fill="#f8f6f7" d="M 503.5,620.5 C 501.902,620.39 500.235,620.057 498.5,619.5C 499.993,608.258 500.493,596.925 500,585.5C 499.288,592.998 498.454,600.331 497.5,607.5C 493.978,610.308 490.311,610.641 486.5,608.5C 484.851,609.648 483.351,610.981 482,612.5C 481.586,612.043 481.086,611.709 480.5,611.5C 479.833,612.5 479.167,613.5 478.5,614.5C 472.866,614.034 467.033,614.034 461,614.5C 459.233,615.34 457.899,616.673 457,618.5C 455.309,615.869 454.142,616.203 453.5,619.5C 452.833,619.167 452.167,618.833 451.5,618.5C 449.359,619.952 447.025,620.952 444.5,621.5C 444.5,620.833 444.5,620.167 444.5,619.5C 443.833,619.5 443.5,619.833 443.5,620.5C 441.784,620.629 440.117,620.962 438.5,621.5C 440.817,613.195 443.983,605.195 448,597.5C 452.811,583.568 457.311,569.568 461.5,555.5C 465.375,554.874 467.209,556.541 467,560.5C 468.551,557.132 469.717,553.632 470.5,550C 471.619,548.124 473.286,547.291 475.5,547.5C 475.351,548.552 475.517,549.552 476,550.5C 477.713,546.588 479.547,546.588 481.5,550.5C 483.179,548.896 485.179,548.229 487.5,548.5C 487.833,552.5 488.167,552.5 488.5,548.5C 489.873,548.343 491.207,548.51 492.5,549C 493.506,552.942 495.339,553.775 498,551.5C 498.772,551.645 499.439,551.978 500,552.5C 501.03,556.773 501.697,561.106 502,565.5C 503,564.167 504,564.167 505,565.5C 505.824,568.785 506.324,572.118 506.5,575.5C 505.304,589.511 503.971,603.678 502.5,618C 503.252,618.671 503.586,619.504 503.5,620.5 Z M 455.5,591.5 C 457.33,585.519 459.163,579.519 461,573.5C 461.173,580.144 459.339,586.144 455.5,591.5 Z M 453.5,596.5 C 453.598,598.553 452.931,600.22 451.5,601.5C 451.402,599.447 452.069,597.78 453.5,596.5 Z M 451.5,601.5 C 450.25,607.987 447.917,613.987 444.5,619.5C 446.314,613.22 448.647,607.22 451.5,601.5 Z"/></g>
<g><path style="opacity:0.892" fill="#faf9f9" d="M 144.5,572.5 C 143.417,572.461 142.417,572.127 141.5,571.5C 140.234,573.71 138.734,575.71 137,577.5C 135.715,577.05 134.548,576.383 133.5,575.5C 132.018,578.622 130.351,581.622 128.5,584.5C 127.288,583.77 126.288,582.77 125.5,581.5C 123.583,575.381 120.916,569.714 117.5,564.5C 120.921,564.097 124.088,565.097 127,567.5C 128.385,566.449 129.385,565.116 130,563.5C 132.382,564.866 134.548,564.533 136.5,562.5C 138.5,563.5 140.5,564.5 142.5,565.5C 144.754,564.876 146.421,563.543 147.5,561.5C 149.332,562.248 150.999,563.248 152.5,564.5C 148.448,565.316 144.448,566.316 140.5,567.5C 142.404,568.766 143.737,570.433 144.5,572.5 Z"/></g>
<g><path style="opacity:0.815" fill="#f8f7f8" d="M 409.5,629.5 C 408.178,629.67 407.011,629.337 406,628.5C 405.71,626.048 405.044,623.715 404,621.5C 402.803,623.792 401.137,624.125 399,622.5C 397.343,623.484 395.677,624.484 394,625.5C 393,624.833 392,624.167 391,623.5C 389.817,624.731 388.651,624.731 387.5,623.5C 391.242,616.42 389.408,611.42 382,608.5C 380.234,609.502 378.567,609.168 377,607.5C 375.798,610.774 374.798,614.107 374,617.5C 372.005,614.159 369.672,613.825 367,616.5C 364.331,614.503 362.665,611.837 362,608.5C 360.846,607.257 359.512,606.257 358,605.5C 357.833,604.5 357.667,603.5 357.5,602.5C 360.231,598.898 361.897,595.064 362.5,591C 359.386,586.225 356.719,581.225 354.5,576C 356.037,574.89 356.703,573.39 356.5,571.5C 358.257,572.292 359.591,573.625 360.5,575.5C 362.006,572.051 363.006,568.384 363.5,564.5C 364.216,563.689 365.05,563.022 366,562.5C 368.135,563.127 370.302,563.627 372.5,564C 373.126,564.75 373.626,565.584 374,566.5C 374.667,565.167 375.667,564.167 377,563.5C 378.945,564.692 380.945,564.692 383,563.5C 385.321,564.487 386.987,566.154 388,568.5C 389.814,567.24 391.647,567.24 393.5,568.5C 394.908,574.469 397.074,580.136 400,585.5C 403.49,600.118 406.657,614.785 409.5,629.5 Z"/></g>
<g><path style="opacity:0.747" fill="#faf9f9" d="M 953.5,569.5 C 953.634,571.292 953.301,572.958 952.5,574.5C 950.007,575.747 947.507,575.747 945,574.5C 943.374,575.289 941.874,576.289 940.5,577.5C 939.707,577.069 938.873,576.735 938,576.5C 936.594,577.414 935.094,578.08 933.5,578.5C 933.595,576.214 934.262,574.214 935.5,572.5C 938.598,573.818 941.265,572.985 943.5,570C 946.817,569.502 950.15,569.335 953.5,569.5 Z"/></g>
<g><path style="opacity:0.838" fill="#faf9f9" d="M 144.5,572.5 C 145.376,572.369 146.043,572.702 146.5,573.5C 145.624,574.251 144.624,574.751 143.5,575C 145.574,577.735 148.241,579.735 151.5,581C 149.479,581.401 148.145,582.568 147.5,584.5C 149.159,585.817 150.326,587.483 151,589.5C 151.914,588.346 152.747,588.513 153.5,590C 149.666,590.962 145.999,592.296 142.5,594C 144.754,596.419 147.421,598.252 150.5,599.5C 149.624,600.251 148.624,600.751 147.5,601C 148.833,601.667 150.167,602.333 151.5,603C 151.167,603.333 150.833,603.667 150.5,604C 153.857,606.572 153.857,608.405 150.5,609.5C 140.677,603.345 133.344,595.011 128.5,584.5C 130.351,581.622 132.018,578.622 133.5,575.5C 134.548,576.383 135.715,577.05 137,577.5C 138.734,575.71 140.234,573.71 141.5,571.5C 142.417,572.127 143.417,572.461 144.5,572.5 Z"/></g>
<g><path style="opacity:0.777" fill="#faf8f8" d="M 356.5,571.5 C 356.703,573.39 356.037,574.89 354.5,576C 356.719,581.225 359.386,586.225 362.5,591C 361.897,595.064 360.231,598.898 357.5,602.5C 357.667,603.5 357.833,604.5 358,605.5C 359.512,606.257 360.846,607.257 362,608.5C 362.665,611.837 364.331,614.503 367,616.5C 369.672,613.825 372.005,614.159 374,617.5C 374.798,614.107 375.798,610.774 377,607.5C 378.567,609.168 380.234,609.502 382,608.5C 389.408,611.42 391.242,616.42 387.5,623.5C 388.651,624.731 389.817,624.731 391,623.5C 392,624.167 393,624.833 394,625.5C 395.677,624.484 397.343,623.484 399,622.5C 401.137,624.125 402.803,623.792 404,621.5C 405.044,623.715 405.71,626.048 406,628.5C 407.011,629.337 408.178,629.67 409.5,629.5C 410.5,632.833 411.5,636.167 412.5,639.5C 408.351,639.681 404.684,641.014 401.5,643.5C 400.833,643.167 400.167,642.833 399.5,642.5C 397.49,644.171 395.157,644.838 392.5,644.5C 392.167,641.167 391.833,637.833 391.5,634.5C 389.799,634.966 388.299,634.966 387,634.5C 384.618,636.109 382.284,637.776 380,639.5C 378.062,638.14 376.396,638.473 375,640.5C 372.288,639.666 369.621,640 367,641.5C 364.513,638.858 362.679,635.858 361.5,632.5C 360.739,631.609 359.739,630.942 358.5,630.5C 356.441,633.193 353.774,634.86 350.5,635.5C 351.819,614.439 352.819,593.106 353.5,571.5C 354.5,571.5 355.5,571.5 356.5,571.5 Z"/></g>
<g><path style="opacity:0.926" fill="#faf9f9" d="M 174.5,572.5 C 176.471,574.808 178.471,577.142 180.5,579.5C 179.859,580.482 179.193,581.482 178.5,582.5C 169.723,583.35 164.723,588.017 163.5,596.5C 161.856,596.286 160.356,596.62 159,597.5C 158.012,600.424 157.346,603.424 157,606.5C 156.414,609.019 155.247,611.019 153.5,612.5C 152.167,611.833 151.167,610.833 150.5,609.5C 151.847,610.171 153.014,610.171 154,609.5C 154.576,607.623 154.409,605.789 153.5,604C 156.009,600.147 157.842,595.981 159,591.5C 160.667,590.833 162.333,590.167 164,589.5C 165.491,582.504 168.991,576.837 174.5,572.5 Z"/></g>
<g><path style="opacity:0.621" fill="#fcfbfb" d="M 834.5,572.5 C 838.936,572.21 843.27,572.71 847.5,574C 849.483,578.043 849.816,582.209 848.5,586.5C 844.805,589.348 840.805,591.681 836.5,593.5C 835.5,593 834.5,592.5 833.5,592C 833.833,591.667 834.167,591.333 834.5,591C 828.784,587.517 827.284,582.684 830,576.5C 831.667,575.267 833.167,573.933 834.5,572.5 Z"/></g>
<g><path style="opacity:0.87" fill="#f7f5f5" d="M 952.5,574.5 C 952.854,576.839 952.187,579.006 950.5,581C 959.335,580.582 966.002,584.082 970.5,591.5C 964.845,593.329 959.178,594.996 953.5,596.5C 952.833,596.5 952.167,596.5 951.5,596.5C 948.024,595.357 944.358,595.19 940.5,596C 939.643,596.689 938.977,597.522 938.5,598.5C 934.991,599.566 931.491,600.566 928,601.5C 926.667,598.833 925.333,598.833 924,601.5C 922.044,601.216 919.877,601.216 917.5,601.5C 916.779,595.783 915.779,590.116 914.5,584.5C 914.863,583.817 915.196,583.15 915.5,582.5C 917.394,581.952 919.06,580.952 920.5,579.5C 922.382,580.093 924.215,580.76 926,581.5C 927.734,579.549 929.901,578.549 932.5,578.5C 932.833,579.833 933.167,579.833 933.5,578.5C 935.094,578.08 936.594,577.414 938,576.5C 938.873,576.735 939.707,577.069 940.5,577.5C 941.874,576.289 943.374,575.289 945,574.5C 947.507,575.747 950.007,575.747 952.5,574.5 Z"/></g>
<g><path style="opacity:0.853" fill="#faf9f9" d="M 931.5,572.5 C 931.517,574.565 931.85,576.565 932.5,578.5C 929.901,578.549 927.734,579.549 926,581.5C 924.215,580.76 922.382,580.093 920.5,579.5C 919.06,580.952 917.394,581.952 915.5,582.5C 915.567,581.041 915.234,579.708 914.5,578.5C 916.969,577.431 919.302,576.098 921.5,574.5C 922.446,574.987 923.446,575.32 924.5,575.5C 926.741,574.308 929.074,573.308 931.5,572.5 Z"/></g>
<g><path style="opacity:0.675" fill="#faf9f9" d="M 893.5,588.5 C 888.418,588.312 883.584,589.312 879,591.5C 878.228,591.355 877.561,591.022 877,590.5C 872.304,592.261 867.47,593.594 862.5,594.5C 862.414,593.504 862.748,592.671 863.5,592C 872.975,585.43 882.975,584.263 893.5,588.5 Z"/></g>
<g><path style="opacity:0.821" fill="#f7f5f6" d="M 893.5,588.5 C 895.441,588.869 897.275,589.536 899,590.5C 899.684,591.784 899.517,592.951 898.5,594C 900.545,594.93 901.379,596.43 901,598.5C 896.265,599.791 892.598,601.791 890,604.5C 888.566,604.07 887.399,603.236 886.5,602C 885.167,601.333 883.833,601.333 882.5,602C 879.276,604.722 876.609,607.888 874.5,611.5C 873.883,611.389 873.383,611.056 873,610.5C 870.07,612.066 866.903,612.9 863.5,613C 859.986,616.07 855.986,616.903 851.5,615.5C 853.862,607.693 857.529,600.693 862.5,594.5C 867.47,593.594 872.304,592.261 877,590.5C 877.561,591.022 878.228,591.355 879,591.5C 883.584,589.312 888.418,588.312 893.5,588.5 Z"/></g>
<g><path style="opacity:0.832" fill="#f4f2f2" d="M 970.5,591.5 C 973.592,595.465 975.259,599.798 975.5,604.5C 973.045,608.814 969.878,609.48 966,606.5C 965.252,608.751 963.752,610.084 961.5,610.5C 960.877,604.579 958.211,599.913 953.5,596.5C 959.178,594.996 964.845,593.329 970.5,591.5 Z"/></g>
<g><path style="opacity:0.767" fill="#f9f9f9" d="M 831.5,595.5 C 833.099,595.232 834.432,595.566 835.5,596.5C 832.272,598.981 828.605,600.148 824.5,600C 826.592,597.964 828.926,596.464 831.5,595.5 Z"/></g>
<g><path style="opacity:0.868" fill="#f4f2f2" d="M 951.5,596.5 C 949.489,601.29 947.489,605.957 945.5,610.5C 942.243,610.668 939.243,611.668 936.5,613.5C 935.522,613.023 934.689,612.357 934,611.5C 933.667,612.167 933.333,612.833 933,613.5C 928.631,612.858 924.131,612.858 919.5,613.5C 918.407,609.606 917.74,605.606 917.5,601.5C 919.877,601.216 922.044,601.216 924,601.5C 925.333,598.833 926.667,598.833 928,601.5C 931.491,600.566 934.991,599.566 938.5,598.5C 938.977,597.522 939.643,596.689 940.5,596C 944.358,595.19 948.024,595.357 951.5,596.5 Z"/></g>
<g><path style="opacity:0.598" fill="#faf9f9" d="M 831.5,595.5 C 828.926,596.464 826.592,597.964 824.5,600C 828.605,600.148 832.272,598.981 835.5,596.5C 836.5,596.5 837.5,596.5 838.5,596.5C 838.5,597.833 838.5,599.167 838.5,600.5C 833.166,602.448 827.666,602.781 822,601.5C 816,605.895 809.5,607.895 802.5,607.5C 812.421,605.956 820.921,601.623 828,594.5C 829.011,595.337 830.178,595.67 831.5,595.5 Z"/></g>
<g><path style="opacity:0.814" fill="#f7f5f6" d="M 838.5,600.5 C 839.695,600.866 840.361,601.699 840.5,603C 836.627,608.58 834.294,614.747 833.5,621.5C 830.597,621.907 827.597,622.074 824.5,622C 823.069,622.465 821.903,623.299 821,624.5C 819.644,623.62 818.144,623.286 816.5,623.5C 816.516,619.726 814.85,618.726 811.5,620.5C 810.526,622.743 810.192,625.076 810.5,627.5C 807.198,628.154 804.031,628.154 801,627.5C 798.558,627.482 796.392,628.149 794.5,629.5C 793.015,623.922 792.181,618.256 792,612.5C 794.634,609.19 798.134,607.523 802.5,607.5C 809.5,607.895 816,605.895 822,601.5C 827.666,602.781 833.166,602.448 838.5,600.5 Z"/></g>
<g><path style="opacity:0.789" fill="#f2eff0" d="M 961.5,610.5 C 963.752,610.084 965.252,608.751 966,606.5C 969.878,609.48 973.045,608.814 975.5,604.5C 976.117,604.611 976.617,604.944 977,605.5C 979.656,616.121 981.989,626.788 984,637.5C 985.556,642.28 987.889,646.613 991,650.5C 999.549,636.72 1004.72,621.72 1006.5,605.5C 1007.43,604.359 1008.26,604.359 1009,605.5C 1009.48,604.552 1009.65,603.552 1009.5,602.5C 1012.71,602.012 1015.54,602.679 1018,604.5C 1018.41,604.043 1018.91,603.709 1019.5,603.5C 1022.33,608.476 1023.17,613.809 1022,619.5C 1019.63,631.952 1015.3,643.619 1009,654.5C 1003.12,660.103 996.453,664.436 989,667.5C 981.667,664.167 976.333,658.833 973,651.5C 967.443,638.327 963.609,624.66 961.5,610.5 Z"/></g>
<g><path style="opacity:0.77" fill="#fbfafa" d="M 775.5,610.5 C 764.655,612.509 753.655,615.009 742.5,618C 737.201,618.93 731.867,619.597 726.5,620C 724.121,620.716 722.121,621.883 720.5,623.5C 715.844,622.296 711.177,622.296 706.5,623.5C 706.833,619.5 707.167,615.5 707.5,611.5C 708.833,611.5 710.167,611.5 711.5,611.5C 711.5,610.5 711.5,609.5 711.5,608.5C 714.777,608.216 717.943,608.549 721,609.5C 731.659,606.337 741.659,608.004 751,614.5C 756.403,607.053 763.57,604.553 772.5,607C 774.426,607.422 775.426,608.589 775.5,610.5 Z"/></g>
<g><path style="opacity:0.827" fill="#faf8f8" d="M 497.5,607.5 C 497.575,613.529 497.241,619.529 496.5,625.5C 481.98,627.616 467.647,630.949 453.5,635.5C 451.239,634.672 449.072,634.339 447,634.5C 444.746,637.605 441.913,638.272 438.5,636.5C 438.167,632.5 437.833,632.5 437.5,636.5C 436.833,636.5 436.5,636.833 436.5,637.5C 436.5,637.833 436.5,638.167 436.5,638.5C 435.833,638.5 435.5,638.833 435.5,639.5C 435.5,639.833 435.5,640.167 435.5,640.5C 435.167,640.5 434.833,640.5 434.5,640.5C 432.858,642.081 430.858,642.747 428.5,642.5C 431.848,635.43 435.181,628.43 438.5,621.5C 440.117,620.962 441.784,620.629 443.5,620.5C 442.273,624.893 442.606,625.226 444.5,621.5C 447.025,620.952 449.359,619.952 451.5,618.5C 452.167,618.833 452.833,619.167 453.5,619.5C 454.142,616.203 455.309,615.869 457,618.5C 457.899,616.673 459.233,615.34 461,614.5C 467.033,614.034 472.866,614.034 478.5,614.5C 479.167,613.5 479.833,612.5 480.5,611.5C 481.086,611.709 481.586,612.043 482,612.5C 483.351,610.981 484.851,609.648 486.5,608.5C 490.311,610.641 493.978,610.308 497.5,607.5 Z"/></g>
<g><path style="opacity:0.802" fill="#f4f2f2" d="M 874.5,611.5 C 873.128,615.003 872.128,618.67 871.5,622.5C 869.29,624.303 866.79,625.636 864,626.5C 858.298,627.233 853.132,627.233 848.5,626.5C 849.301,622.765 850.301,619.099 851.5,615.5C 855.986,616.903 859.986,616.07 863.5,613C 866.903,612.9 870.07,612.066 873,610.5C 873.383,611.056 873.883,611.389 874.5,611.5 Z"/></g>
<g><path style="opacity:0.809" fill="#f2f0f0" d="M 945.5,610.5 C 942.236,619.558 940.236,628.892 939.5,638.5C 935.47,639.348 931.803,641.015 928.5,643.5C 926.482,641.65 924.649,639.65 923,637.5C 912.845,647.49 900.678,653.156 886.5,654.5C 876.027,653.417 867.694,648.417 861.5,639.5C 859.368,642.801 857.035,645.968 854.5,649C 851.193,649.653 848.527,651.319 846.5,654C 843.508,655.036 840.675,655.536 838,655.5C 835,653.167 832,650.833 829,648.5C 827.431,644.928 825.098,641.928 822,639.5C 820.991,637.975 820.491,636.308 820.5,634.5C 820.441,632.235 821.274,631.902 823,633.5C 824.667,632.833 826.333,632.167 828,631.5C 830.324,632.693 832.49,632.693 834.5,631.5C 836.452,634.118 838.785,636.452 841.5,638.5C 842.478,638.023 843.311,637.357 844,636.5C 845.275,632.958 846.775,629.625 848.5,626.5C 853.132,627.233 858.298,627.233 864,626.5C 866.79,625.636 869.29,624.303 871.5,622.5C 872.673,632.996 878.673,638.329 889.5,638.5C 893.196,638.217 896.863,637.717 900.5,637C 903.63,634.872 906.463,632.372 909,629.5C 911.778,623.588 915.278,618.255 919.5,613.5C 924.131,612.858 928.631,612.858 933,613.5C 933.333,612.833 933.667,612.167 934,611.5C 934.689,612.357 935.522,613.023 936.5,613.5C 939.243,611.668 942.243,610.668 945.5,610.5 Z"/></g>
<g><path style="opacity:0.967" fill="#faf9f9" d="M 775.5,610.5 C 776.338,610.842 776.672,611.508 776.5,612.5C 770.465,613.76 764.632,615.76 759,618.5C 758.228,618.355 757.561,618.022 757,617.5C 750.744,618.071 744.577,619.238 738.5,621C 737.619,621.708 736.953,622.542 736.5,623.5C 732.932,623.121 729.265,623.121 725.5,623.5C 723.833,623.5 722.167,623.5 720.5,623.5C 722.121,621.883 724.121,620.716 726.5,620C 731.867,619.597 737.201,618.93 742.5,618C 753.655,615.009 764.655,612.509 775.5,610.5 Z"/></g>
<g><path style="opacity:0.869" fill="#f7f5f6" d="M 776.5,612.5 C 778.511,614.667 779.678,617.334 780,620.5C 780.735,624.813 781.235,629.147 781.5,633.5C 779.559,633.131 777.725,632.464 776,631.5C 773.204,633.58 769.704,634.913 765.5,635.5C 765.235,631.147 764.735,626.813 764,622.5C 758.343,626.533 756.843,631.866 759.5,638.5C 756.773,639.506 754.106,639.172 751.5,637.5C 745.547,639.428 739.547,641.262 733.5,643C 722.732,644.947 712.399,646.447 702.5,647.5C 704.217,640.916 705.55,634.25 706.5,627.5C 708.738,628.537 711.071,628.703 713.5,628C 715.76,626.212 718.093,624.712 720.5,623.5C 722.167,623.5 723.833,623.5 725.5,623.5C 724.197,626.376 723.697,629.376 724,632.5C 725.085,633.293 726.252,633.96 727.5,634.5C 731.676,631.912 735.676,629.079 739.5,626C 738.429,625.148 737.429,624.315 736.5,623.5C 736.953,622.542 737.619,621.708 738.5,621C 744.577,619.238 750.744,618.071 757,617.5C 757.561,618.022 758.228,618.355 759,618.5C 764.632,615.76 770.465,613.76 776.5,612.5 Z"/></g>
<g><path style="opacity:0.764" fill="#fafafa" d="M 692.5,629.5 C 685.743,627.303 679.076,627.469 672.5,630C 670.252,631.914 667.752,633.414 665,634.5C 661.974,633.128 658.807,632.462 655.5,632.5C 662.814,617.843 674.481,612.343 690.5,616C 692.754,617.377 694.92,618.877 697,620.5C 697.303,622.888 698.137,625.055 699.5,627C 697.235,628.118 694.901,628.951 692.5,629.5 Z"/></g>
<g><path style="opacity:0.835" fill="#fbfafa" d="M 636.5,642.5 C 631.362,644.252 626.029,645.586 620.5,646.5C 618.203,644.706 616.037,642.706 614,640.5C 611.003,645.996 606.837,650.329 601.5,653.5C 599.801,653.38 598.135,653.046 596.5,652.5C 592.196,653.715 587.862,654.715 583.5,655.5C 583.719,656.675 583.386,657.675 582.5,658.5C 575.933,663.604 568.766,665.27 561,663.5C 558.26,664.282 555.426,664.782 552.5,665C 550.715,666.163 548.715,666.83 546.5,667C 545.695,668.113 545.028,669.279 544.5,670.5C 543.068,668.673 541.401,667.006 539.5,665.5C 538.523,667.411 537.857,669.411 537.5,671.5C 535.335,672.392 533.169,672.059 531,670.5C 527.232,672.566 523.399,673.566 519.5,673.5C 520.436,659.497 526.436,648.33 537.5,640C 544.668,640.58 551.001,638.58 556.5,634C 564.324,632.387 571.99,633.054 579.5,636C 583.801,637.785 585.801,640.952 585.5,645.5C 588.421,645.854 590.754,644.854 592.5,642.5C 596.845,636.476 600.679,630.143 604,623.5C 608.508,618.445 614.008,617.612 620.5,621C 621.856,623.398 623.023,625.898 624,628.5C 627.949,633.428 632.116,638.094 636.5,642.5 Z M 560.5,647.5 C 563.545,647.704 566.379,647.704 569,647.5C 570.925,649.592 572.092,652.092 572.5,655C 567.775,658.114 562.608,659.948 557,660.5C 555.775,660.138 554.609,659.638 553.5,659C 554.255,656.825 555.088,654.659 556,652.5C 557.707,650.963 559.207,649.296 560.5,647.5 Z"/></g>
<g><path style="opacity:0.336" fill="#faf9f9" d="M 498.5,619.5 C 500.235,620.057 501.902,620.39 503.5,620.5C 502.612,623.054 502.279,625.721 502.5,628.5C 501.395,629.6 500.062,630.267 498.5,630.5C 498.5,626.833 498.5,623.167 498.5,619.5 Z"/></g>
<g><path style="opacity:0.795" fill="#f4f2f2" d="M 833.5,621.5 C 833.342,624.902 833.676,628.236 834.5,631.5C 832.49,632.693 830.324,632.693 828,631.5C 826.333,632.167 824.667,632.833 823,633.5C 821.274,631.902 820.441,632.235 820.5,634.5C 817.79,631.4 816.457,627.733 816.5,623.5C 818.144,623.286 819.644,623.62 821,624.5C 821.903,623.299 823.069,622.465 824.5,622C 827.597,622.074 830.597,621.907 833.5,621.5 Z"/></g>
<g><path style="opacity:0.911" fill="#faf9f9" d="M 720.5,623.5 C 718.093,624.712 715.76,626.212 713.5,628C 711.071,628.703 708.738,628.537 706.5,627.5C 706.5,626.167 706.5,624.833 706.5,623.5C 711.177,622.296 715.844,622.296 720.5,623.5 Z"/></g>
<g><path style="opacity:0.818" fill="#fbfafa" d="M 496.5,625.5 C 495.7,642.738 494.367,660.071 492.5,677.5C 489.414,678.985 486.081,679.985 482.5,680.5C 482.709,681.086 483.043,681.586 483.5,682C 482.069,682.465 480.903,683.299 480,684.5C 479.439,683.978 478.772,683.645 478,683.5C 475.54,684.598 473.04,685.598 470.5,686.5C 465.908,686.409 461.408,686.409 457,686.5C 455.67,687.582 454.17,688.249 452.5,688.5C 452.5,687.5 452.5,686.5 452.5,685.5C 445.825,687.186 440.159,690.519 435.5,695.5C 431.626,694.86 427.793,694.527 424,694.5C 422.826,696.671 420.993,697.671 418.5,697.5C 416.446,696.391 414.279,695.391 412,694.5C 411.5,694.667 411,694.833 410.5,695C 411.731,696.405 413.064,697.571 414.5,698.5C 413.245,698.501 411.912,698.834 410.5,699.5C 403.836,693.865 398.336,687.198 394,679.5C 393.403,688.363 392.903,697.03 392.5,705.5C 391.167,705.5 389.833,705.5 388.5,705.5C 388.637,695.773 389.304,686.107 390.5,676.5C 390.192,675.692 389.692,675.025 389,674.5C 387.969,684.596 387.136,694.93 386.5,705.5C 383.507,707.584 380.34,707.917 377,706.5C 374.453,706.762 371.953,707.262 369.5,708C 365.897,715.123 360.23,717.29 352.5,714.5C 352.663,712.143 352.497,709.81 352,707.5C 351.503,710.146 351.336,712.813 351.5,715.5C 350.167,715.5 348.833,715.5 347.5,715.5C 348.343,689.66 349.343,663.66 350.5,637.5C 351.822,637.33 352.989,637.663 354,638.5C 354.374,637.584 354.874,636.75 355.5,636C 357.405,634.579 359.405,633.412 361.5,632.5C 362.679,635.858 364.513,638.858 367,641.5C 369.621,640 372.288,639.666 375,640.5C 376.396,638.473 378.062,638.14 380,639.5C 382.284,637.776 384.618,636.109 387,634.5C 388.299,634.966 389.799,634.966 391.5,634.5C 391.833,637.833 392.167,641.167 392.5,644.5C 395.157,644.838 397.49,644.171 399.5,642.5C 400.167,642.833 400.833,643.167 401.5,643.5C 404.684,641.014 408.351,639.681 412.5,639.5C 415.575,644.643 418.908,649.643 422.5,654.5C 425.445,651.017 427.445,647.017 428.5,642.5C 430.858,642.747 432.858,642.081 434.5,640.5C 434.833,643.167 435.167,643.167 435.5,640.5C 435.5,640.167 435.5,639.833 435.5,639.5C 435.833,639.5 436.167,639.5 436.5,639.5C 441.332,639.172 445.832,637.839 450,635.5C 451.349,638.07 452.516,638.07 453.5,635.5C 467.647,630.949 481.98,627.616 496.5,625.5 Z"/></g>
<g><path style="opacity:0.779" fill="#f4f2f2" d="M 810.5,627.5 C 811.254,630.023 811.92,632.689 812.5,635.5C 812.376,636.107 812.043,636.44 811.5,636.5C 809.97,637.067 808.47,637.733 807,638.5C 803.099,638.067 799.266,638.067 795.5,638.5C 794.701,635.57 794.368,632.57 794.5,629.5C 796.392,628.149 798.558,627.482 801,627.5C 804.031,628.154 807.198,628.154 810.5,627.5 Z"/></g>
<g><path style="opacity:0.325" fill="#fbfafb" d="M 502.5,628.5 C 501.355,644.537 500.021,660.537 498.5,676.5C 497.167,676.5 495.833,676.5 494.5,676.5C 495.684,661.104 497.017,645.771 498.5,630.5C 500.062,630.267 501.395,629.6 502.5,628.5 Z"/></g>
<g><path style="opacity:0.542" fill="#f9f9f9" d="M 361.5,632.5 C 359.405,633.412 357.405,634.579 355.5,636C 354.874,636.75 354.374,637.584 354,638.5C 352.989,637.663 351.822,637.33 350.5,637.5C 350.5,636.833 350.5,636.167 350.5,635.5C 353.774,634.86 356.441,633.193 358.5,630.5C 359.739,630.942 360.739,631.609 361.5,632.5 Z"/></g>
<g><path style="opacity:0.63" fill="#f9f8f9" d="M 692.5,629.5 C 691.816,631.185 690.483,632.185 688.5,632.5C 681.936,627.924 676.603,628.924 672.5,635.5C 666.07,636.515 659.736,637.848 653.5,639.5C 654.455,637.254 655.122,634.921 655.5,632.5C 658.807,632.462 661.974,633.128 665,634.5C 667.752,633.414 670.252,631.914 672.5,630C 679.076,627.469 685.743,627.303 692.5,629.5 Z"/></g>
<g><path style="opacity:0.812" fill="#f4f2f2" d="M 781.5,633.5 C 782.299,636.43 782.632,639.43 782.5,642.5C 777.411,643.931 772.078,644.931 766.5,645.5C 765.793,642.214 765.46,638.881 765.5,635.5C 769.704,634.913 773.204,633.58 776,631.5C 777.725,632.464 779.559,633.131 781.5,633.5 Z"/></g>
<g><path style="opacity:0.769" fill="#f9f9f9" d="M 453.5,635.5 C 452.516,638.07 451.349,638.07 450,635.5C 445.832,637.839 441.332,639.172 436.5,639.5C 436.5,639.167 436.5,638.833 436.5,638.5C 436.5,638.167 436.5,637.833 436.5,637.5C 437.167,637.5 437.5,637.167 437.5,636.5C 437.833,636.5 438.167,636.5 438.5,636.5C 441.913,638.272 444.746,637.605 447,634.5C 449.072,634.339 451.239,634.672 453.5,635.5 Z"/></g>
<g><path style="opacity:0.751" fill="#f7f6f6" d="M 672.5,635.5 C 670.244,641.275 669.244,647.275 669.5,653.5C 666.224,654.283 662.891,655.283 659.5,656.5C 657.597,655.647 655.597,655.647 653.5,656.5C 652.167,650.833 652.167,645.167 653.5,639.5C 659.736,637.848 666.07,636.515 672.5,635.5 Z"/></g>
<g><path style="opacity:0.764" fill="#f2f0f0" d="M 811.5,636.5 C 813.481,658.353 803.481,669.186 781.5,669C 772.648,663.029 767.648,655.195 766.5,645.5C 772.078,644.931 777.411,643.931 782.5,642.5C 783.319,645.305 783.819,648.305 784,651.5C 785.667,652.833 787.333,654.167 789,655.5C 793.066,650.455 795.233,644.789 795.5,638.5C 799.266,638.067 803.099,638.067 807,638.5C 808.47,637.733 809.97,637.067 811.5,636.5 Z"/></g>
<g><path style="opacity:0.773" fill="#f4f2f2" d="M 759.5,638.5 C 760.414,641.728 760.747,645.061 760.5,648.5C 755.842,648.72 751.342,648.387 747,647.5C 746.241,649.063 745.074,650.063 743.5,650.5C 743.457,647.577 743.124,644.577 742.5,641.5C 737.46,646.182 731.46,648.515 724.5,648.5C 723.334,650.167 723.334,651.834 724.5,653.5C 721.133,654.591 717.633,656.258 714,658.5C 709.987,655.879 706.153,656.212 702.5,659.5C 700.674,659.08 698.674,659.08 696.5,659.5C 699.025,655.783 701.025,651.783 702.5,647.5C 712.399,646.447 722.732,644.947 733.5,643C 739.547,641.262 745.547,639.428 751.5,637.5C 754.106,639.172 756.773,639.506 759.5,638.5 Z"/></g>
<g><path style="opacity:0.945" fill="#faf9f9" d="M 636.5,642.5 C 637.5,642.833 638.167,643.5 638.5,644.5C 636.235,646.642 633.568,648.309 630.5,649.5C 627.209,648.618 623.876,647.952 620.5,647.5C 620.5,647.167 620.5,646.833 620.5,646.5C 626.029,645.586 631.362,644.252 636.5,642.5 Z"/></g>
<g><path style="opacity:0.767" fill="#f7f6f6" d="M 638.5,644.5 C 643.864,648.218 647.531,653.218 649.5,659.5C 646.813,659.336 644.146,659.503 641.5,660C 640.167,660.667 640.167,661.333 641.5,662C 639.26,662.977 636.927,663.477 634.5,663.5C 633.91,662.234 633.41,660.901 633,659.5C 628.305,655.97 624.138,651.97 620.5,647.5C 623.876,647.952 627.209,648.618 630.5,649.5C 633.568,648.309 636.235,646.642 638.5,644.5 Z"/></g>
<g><path style="opacity:0.792" fill="#f2eff0" d="M 760.5,648.5 C 759.273,656.908 755.273,663.741 748.5,669C 744.5,671.667 740.5,674.333 736.5,677C 730.401,679.73 724.401,679.73 718.5,677C 717.073,672.976 714.573,669.809 711,667.5C 701.017,679.82 688.351,686.486 673,687.5C 669.834,686.833 667,685.5 664.5,683.5C 663.359,682.575 663.359,681.741 664.5,681C 660.452,677.742 657.785,673.575 656.5,668.5C 661.121,668.118 665.454,666.785 669.5,664.5C 670.183,664.863 670.85,665.196 671.5,665.5C 672.819,671.654 676.486,673.82 682.5,672C 688.631,669.364 693.297,665.197 696.5,659.5C 698.674,659.08 700.674,659.08 702.5,659.5C 706.153,656.212 709.987,655.879 714,658.5C 717.633,656.258 721.133,654.591 724.5,653.5C 725.298,665.688 729.798,667.354 738,658.5C 739.306,655.379 741.14,652.713 743.5,650.5C 745.074,650.063 746.241,649.063 747,647.5C 751.342,648.387 755.842,648.72 760.5,648.5 Z"/></g>
<g><path style="opacity:0.915" fill="#faf8f8" d="M 601.5,653.5 C 598.011,656.08 594.344,658.413 590.5,660.5C 588.143,660.337 585.81,660.503 583.5,661C 578.849,665.656 573.183,668.156 566.5,668.5C 560.549,666.577 554.883,667.577 549.5,671.5C 548.274,670.637 546.94,670.637 545.5,671.5C 544.833,671.5 544.5,671.167 544.5,670.5C 545.028,669.279 545.695,668.113 546.5,667C 548.715,666.83 550.715,666.163 552.5,665C 555.426,664.782 558.26,664.282 561,663.5C 568.766,665.27 575.933,663.604 582.5,658.5C 583.386,657.675 583.719,656.675 583.5,655.5C 587.862,654.715 592.196,653.715 596.5,652.5C 598.135,653.046 599.801,653.38 601.5,653.5 Z"/></g>
<g><path style="opacity:0.789" fill="#f4f2f2" d="M 669.5,653.5 C 670.617,657.295 671.283,661.295 671.5,665.5C 670.85,665.196 670.183,664.863 669.5,664.5C 665.454,666.785 661.121,668.118 656.5,668.5C 655.488,664.484 654.488,660.484 653.5,656.5C 655.597,655.647 657.597,655.647 659.5,656.5C 662.891,655.283 666.224,654.283 669.5,653.5 Z"/></g>
<g><path style="opacity:0.805" fill="#f4f2f2" d="M 649.5,659.5 C 650.774,661.993 651.44,664.659 651.5,667.5C 648.397,668.042 645.564,669.376 643,671.5C 641.989,670.663 640.822,670.33 639.5,670.5C 638,674.33 637.333,678.33 637.5,682.5C 635.738,682.643 634.071,682.309 632.5,681.5C 629.861,683.53 627.028,685.197 624,686.5C 622.893,685.288 622.393,685.621 622.5,687.5C 621.054,688.613 619.387,688.78 617.5,688C 617.833,687.667 618.167,687.333 618.5,687C 615.334,684.522 613.834,681.356 614,677.5C 615.255,676.789 616.421,675.956 617.5,675C 622.252,674.275 626.919,673.275 631.5,672C 634.125,669.804 635.125,666.97 634.5,663.5C 636.927,663.477 639.26,662.977 641.5,662C 640.167,661.333 640.167,660.667 641.5,660C 644.146,659.503 646.813,659.336 649.5,659.5 Z"/></g>
<g><path style="opacity:0.79" fill="#f7f6f6" d="M 590.5,660.5 C 590.401,670.298 587.234,678.965 581,686.5C 571.665,694.833 561.498,702 550.5,708C 537.69,712.38 528.524,708.214 523,695.5C 521.1,691.368 520.267,687.034 520.5,682.5C 525.341,679.773 530.675,678.106 536.5,677.5C 534.247,693.757 540.247,697.924 554.5,690C 560.736,685.599 565.736,680.099 569.5,673.5C 564.264,673.009 559.098,673.675 554,675.5C 553.646,673.193 552.646,672.859 551,674.5C 548.704,674.141 546.871,673.141 545.5,671.5C 546.94,670.637 548.274,670.637 549.5,671.5C 554.883,667.577 560.549,666.577 566.5,668.5C 573.183,668.156 578.849,665.656 583.5,661C 585.81,660.503 588.143,660.337 590.5,660.5 Z"/></g>
<g><path style="opacity:0.751" fill="#f2f0f0" d="M 651.5,667.5 C 652.613,668.946 652.78,670.613 652,672.5C 651,674.167 650,675.833 649,677.5C 645.002,679.281 641.502,681.781 638.5,685C 633.245,686.376 627.912,687.209 622.5,687.5C 622.393,685.621 622.893,685.288 624,686.5C 627.028,685.197 629.861,683.53 632.5,681.5C 634.071,682.309 635.738,682.643 637.5,682.5C 637.333,678.33 638,674.33 639.5,670.5C 640.822,670.33 641.989,670.663 643,671.5C 645.564,669.376 648.397,668.042 651.5,667.5 Z"/></g>
<g><path style="opacity:0.816" fill="#faf8f8" d="M 537.5,671.5 C 537.653,673.386 537.32,675.386 536.5,677.5C 530.675,678.106 525.341,679.773 520.5,682.5C 519.523,679.713 519.19,676.713 519.5,673.5C 523.399,673.566 527.232,672.566 531,670.5C 533.169,672.059 535.335,672.392 537.5,671.5 Z"/></g>
<g><path style="opacity:0.814" fill="#faf8f9" d="M 492.5,677.5 C 492.5,680.5 492.5,683.5 492.5,686.5C 487.735,685.907 483.069,686.74 478.5,689C 478.5,690 478.5,691 478.5,692C 477.22,694.932 475.22,695.765 472.5,694.5C 465.574,695.759 458.574,696.426 451.5,696.5C 452.265,693.904 452.599,691.237 452.5,688.5C 454.17,688.249 455.67,687.582 457,686.5C 461.408,686.409 465.908,686.409 470.5,686.5C 473.04,685.598 475.54,684.598 478,683.5C 478.772,683.645 479.439,683.978 480,684.5C 480.903,683.299 482.069,682.465 483.5,682C 483.043,681.586 482.709,681.086 482.5,680.5C 486.081,679.985 489.414,678.985 492.5,677.5 Z"/></g>
<g><path style="opacity:0.348" fill="#faf9f9" d="M 494.5,676.5 C 495.833,676.5 497.167,676.5 498.5,676.5C 498.5,679.833 498.5,683.167 498.5,686.5C 496.708,686.634 495.042,686.301 493.5,685.5C 494.403,682.609 494.736,679.609 494.5,676.5 Z"/></g>
<g><path style="opacity:0.778" fill="#f6f5f5" d="M 492.5,686.5 C 491.452,704.153 491.286,721.819 492,739.5C 492.378,721.493 492.878,703.493 493.5,685.5C 495.042,686.301 496.708,686.634 498.5,686.5C 495.848,714.821 495.848,743.154 498.5,771.5C 497.357,771.908 496.357,772.575 495.5,773.5C 493.204,779 491.371,784.333 490,789.5C 489,790.167 488,790.833 487,791.5C 484.287,797.751 482.453,804.084 481.5,810.5C 479.069,812.068 479.069,813.568 481.5,815C 480.789,816.255 479.956,817.421 479,818.5C 478.378,823.263 478.545,824.263 479.5,821.5C 480.5,821.5 481.5,821.5 482.5,821.5C 482.57,818.341 484.237,816.674 487.5,816.5C 488.768,820.834 488.434,825.167 486.5,829.5C 484.535,829.948 484.202,830.948 485.5,832.5C 489.334,829.561 493.668,829.228 498.5,831.5C 497.375,832.652 497.375,833.652 498.5,834.5C 497.167,836.5 497.167,838.5 498.5,840.5C 496.883,839.962 495.216,839.629 493.5,839.5C 497.143,842.989 501.476,844.822 506.5,845C 505.473,844.487 504.473,843.987 503.5,843.5C 504.37,841.401 505.703,841.068 507.5,842.5C 509.413,841.627 511.247,840.627 513,839.5C 514.395,840.815 515.395,840.481 516,838.5C 516.667,839.167 517.333,839.833 518,840.5C 519.333,839.167 520.667,837.833 522,836.5C 523.572,838.589 525.405,838.589 527.5,836.5C 529.235,837.057 530.902,837.39 532.5,837.5C 533.826,836.01 535.326,834.676 537,833.5C 537.383,834.056 537.883,834.389 538.5,834.5C 537.766,835.708 537.433,837.041 537.5,838.5C 536.805,840.437 537.805,841.437 540.5,841.5C 536.923,844.315 532.923,846.482 528.5,848C 518.426,848.923 508.426,848.59 498.5,847C 494.385,844.552 490.552,841.719 487,838.5C 479.283,829.117 471.949,819.451 465,809.5C 463.111,801.167 460.445,793.167 457,785.5C 452.069,755.892 450.236,726.225 451.5,696.5C 458.574,696.426 465.574,695.759 472.5,694.5C 475.22,695.765 477.22,694.932 478.5,692C 478.5,691 478.5,690 478.5,689C 483.069,686.74 487.735,685.907 492.5,686.5 Z M 493.5,839.5 C 495.216,839.629 496.883,839.962 498.5,840.5C 499.965,841.737 501.632,842.737 503.5,843.5C 504.473,843.987 505.473,844.487 506.5,845C 501.476,844.822 497.143,842.989 493.5,839.5 Z"/></g>
<g><path style="opacity:0.276" fill="#f9f9f8" d="M 435.5,695.5 C 432.646,697.479 429.646,699.312 426.5,701C 420.95,701.997 415.617,701.497 410.5,699.5C 411.912,698.834 413.245,698.501 414.5,698.5C 416.099,698.768 417.432,698.434 418.5,697.5C 420.993,697.671 422.826,696.671 424,694.5C 427.793,694.527 431.626,694.86 435.5,695.5 Z"/></g>
<g><path style="opacity:0.771" fill="#faf8f8" d="M 386.5,705.5 C 386.353,710.734 386.02,715.734 385.5,720.5C 382.632,720.085 380.465,721.085 379,723.5C 378.667,723.167 378.333,722.833 378,722.5C 374.067,723.056 370.234,724.056 366.5,725.5C 365.914,725.291 365.414,724.957 365,724.5C 364.93,728.196 366.096,731.53 368.5,734.5C 367.372,735.262 366.205,735.929 365,736.5C 361.109,735.939 357.109,734.939 353,733.5C 350.288,733.391 348.122,734.391 346.5,736.5C 346.349,729.127 346.682,722.127 347.5,715.5C 348.833,715.5 350.167,715.5 351.5,715.5C 352.167,715.5 352.5,715.167 352.5,714.5C 360.23,717.29 365.897,715.123 369.5,708C 371.953,707.262 374.453,706.762 377,706.5C 380.34,707.917 383.507,707.584 386.5,705.5 Z"/></g>
<g><path style="opacity:0.303" fill="#faf8f8" d="M 388.5,705.5 C 389.833,705.5 391.167,705.5 392.5,705.5C 392.387,710.518 392.053,715.518 391.5,720.5C 390.167,720.5 388.833,720.5 387.5,720.5C 387.751,715.493 388.084,710.493 388.5,705.5 Z"/></g>
<g><path style="opacity:0.662" fill="#f8f7f7" d="M 385.5,720.5 C 385.163,724.308 385.663,727.974 387,731.5C 387.074,728.02 387.24,724.353 387.5,720.5C 388.833,720.5 390.167,720.5 391.5,720.5C 389.911,736.813 390.911,753.146 394.5,769.5C 394.141,772.282 392.808,772.948 390.5,771.5C 389.746,768.223 389.246,764.89 389,761.5C 387.562,764.821 387.395,768.154 388.5,771.5C 387.376,772.914 386.376,774.414 385.5,776C 384.256,776.456 383.423,775.956 383,774.5C 382.51,775.793 382.343,777.127 382.5,778.5C 377.845,777.819 375.178,779.819 374.5,784.5C 373.707,784.931 372.873,785.265 372,785.5C 368.086,781.245 366.919,781.912 368.5,787.5C 367.5,787.5 366.5,787.5 365.5,787.5C 364.885,783.992 363.885,780.659 362.5,777.5C 361.5,777.5 360.5,777.5 359.5,777.5C 359.719,776.325 359.386,775.325 358.5,774.5C 357.28,775.711 356.113,775.711 355,774.5C 355.123,769.941 353.789,765.941 351,762.5C 349.263,753.829 347.763,745.162 346.5,736.5C 348.122,734.391 350.288,733.391 353,733.5C 357.109,734.939 361.109,735.939 365,736.5C 366.205,735.929 367.372,735.262 368.5,734.5C 366.096,731.53 364.93,728.196 365,724.5C 365.414,724.957 365.914,725.291 366.5,725.5C 370.234,724.056 374.067,723.056 378,722.5C 378.333,722.833 378.667,723.167 379,723.5C 380.465,721.085 382.632,720.085 385.5,720.5 Z"/></g>
<g><path style="opacity:0.805" fill="#f4f2f2" d="M 498.5,771.5 C 499.882,778.656 501.048,785.989 502,793.5C 505.426,799.921 509.926,805.421 515.5,810C 519.37,810.107 523.203,809.607 527,808.5C 529.845,805.981 532.345,803.148 534.5,800C 535.449,799.383 536.282,799.549 537,800.5C 539.368,796.968 542.202,793.968 545.5,791.5C 546.251,792.376 546.751,793.376 547,794.5C 548.851,791.936 550.684,791.936 552.5,794.5C 555.505,791.58 557.338,792.246 558,796.5C 558.845,793.588 560.512,792.588 563,793.5C 562.954,795.313 563.12,796.979 563.5,798.5C 565.667,798.173 568.001,797.506 570.5,796.5C 570.822,798.722 570.155,800.556 568.5,802C 569.167,802.667 569.833,803.333 570.5,804C 567.996,806.447 567.663,808.781 569.5,811C 568.971,812.559 568.304,814.059 567.5,815.5C 567.846,816.696 568.346,816.696 569,815.5C 570.039,813.254 571.206,811.087 572.5,809C 574.237,808.388 575.237,809.054 575.5,811C 571.962,822.61 564.295,829.944 552.5,833C 550.973,834.032 549.64,835.199 548.5,836.5C 547.504,836.586 546.671,836.252 546,835.5C 543.742,838.736 540.909,839.736 537.5,838.5C 537.433,837.041 537.766,835.708 538.5,834.5C 539.429,831.388 541.096,828.722 543.5,826.5C 543.167,825.167 542.833,823.833 542.5,822.5C 539.975,824.815 536.975,826.315 533.5,827C 531.888,827.72 530.388,827.554 529,826.5C 526.773,830.117 523.939,830.45 520.5,827.5C 519.186,828.313 518.019,829.313 517,830.5C 516.586,830.043 516.086,829.709 515.5,829.5C 510.844,832.166 506.011,834.166 501,835.5C 500.329,834.748 499.496,834.414 498.5,834.5C 497.375,833.652 497.375,832.652 498.5,831.5C 499.743,829.836 501.41,828.669 503.5,828C 501.863,826.049 500.363,826.216 499,828.5C 497.667,827.167 496.333,827.167 495,828.5C 491.998,826.088 489.165,826.421 486.5,829.5C 488.434,825.167 488.768,820.834 487.5,816.5C 487.783,815.784 488.116,814.951 488.5,814C 487.333,812.833 486.167,811.667 485,810.5C 483.607,813.125 482.441,813.125 481.5,810.5C 482.453,804.084 484.287,797.751 487,791.5C 488,790.833 489,790.167 490,789.5C 491.371,784.333 493.204,779 495.5,773.5C 496.357,772.575 497.357,771.908 498.5,771.5 Z"/></g>
<g><path style="opacity:0.952" fill="#f5f3f3" d="M 481.5,810.5 C 482.441,813.125 483.607,813.125 485,810.5C 486.167,811.667 487.333,812.833 488.5,814C 488.116,814.951 487.783,815.784 487.5,816.5C 484.237,816.674 482.57,818.341 482.5,821.5C 481.5,821.5 480.5,821.5 479.5,821.5C 478.545,824.263 478.378,823.263 479,818.5C 479.956,817.421 480.789,816.255 481.5,815C 479.069,813.568 479.069,812.068 481.5,810.5 Z"/></g>
<g><path style="opacity:0.918" fill="#f5f3f3" d="M 538.5,834.5 C 537.883,834.389 537.383,834.056 537,833.5C 535.326,834.676 533.826,836.01 532.5,837.5C 530.902,837.39 529.235,837.057 527.5,836.5C 525.405,838.589 523.572,838.589 522,836.5C 520.667,837.833 519.333,839.167 518,840.5C 517.333,839.833 516.667,839.167 516,838.5C 515.395,840.481 514.395,840.815 513,839.5C 511.247,840.627 509.413,841.627 507.5,842.5C 505.703,841.068 504.37,841.401 503.5,843.5C 501.632,842.737 499.965,841.737 498.5,840.5C 497.167,838.5 497.167,836.5 498.5,834.5C 499.496,834.414 500.329,834.748 501,835.5C 506.011,834.166 510.844,832.166 515.5,829.5C 516.086,829.709 516.586,830.043 517,830.5C 518.019,829.313 519.186,828.313 520.5,827.5C 523.939,830.45 526.773,830.117 529,826.5C 530.388,827.554 531.888,827.72 533.5,827C 536.975,826.315 539.975,824.815 542.5,822.5C 542.833,823.833 543.167,825.167 543.5,826.5C 541.096,828.722 539.429,831.388 538.5,834.5 Z"/></g>
<g><path style="opacity:0.89" fill="#f5f3f3" d="M 498.5,831.5 C 493.668,829.228 489.334,829.561 485.5,832.5C 484.202,830.948 484.535,829.948 486.5,829.5C 489.165,826.421 491.998,826.088 495,828.5C 496.333,827.167 497.667,827.167 499,828.5C 500.363,826.216 501.863,826.049 503.5,828C 501.41,828.669 499.743,829.836 498.5,831.5 Z"/></g>
<g><path style="opacity:0.571" fill="#f6f3f4" d="M 548.5,836.5 C 546.371,838.95 543.704,840.617 540.5,841.5C 537.805,841.437 536.805,840.437 537.5,838.5C 540.909,839.736 543.742,838.736 546,835.5C 546.671,836.252 547.504,836.586 548.5,836.5 Z"/></g>
</svg>
