<?xml version="1.0" encoding="UTF-8"?>
<svg version="1.1" viewBox="0 0 2048 1142" width="1280" height="1280" xmlns="http://www.w3.org/2000/svg">
<path transform="translate(507,166)" d="m0 0h16l14 1 2 1 45 3 19 5 14 6 23 13 11 8 5 4 7 8 9 14 3 8 2 18 8 16 2 10 1 13v18l-3 20-5 12-7 11-9 12-10 13-4 5h-3l-1-5 6-9 12-15 9-14 4-9 2-9 1-9v-21l-2-23h-2l-1 20-6 39-4 13-8 14-11 15-12 16-4 5h-2l1-7h-1l-4 5-6 9h-9l-11 16-3 2h-4l2-9 3-6-1-6-5 3-5 10-5-1-1-2 5-10 5-5 2-5-4 4-5 7-5 5-5 4-2-1 1-6 5-8 1-6-7-2-3 10-3 1-3-3 6-11 3-8-1-4-7 11h-7v-2l-4-2-1-5 7-14 8-11 2-15 5-10 7-9 1-2v-16l-1-2-3 16-8 16-8 12-8 10-3 5v6l-4-2-4 1-1-7 12-16 9-13 6-12 3-14v-28l-13-3h-31l-24 2-19 4-10 4-10 8-7 8-11 13-14 19-12 17-10 15-12 24-13 30-12 36-10 29-7 23-6 26-5 28-4 34-3 36-1 19v40l4 64 2 17 5 21 8 24 13 29 10 16 14 18 9 12 9 10 9 8 14 7 9 2h10l24-3 12-5 12-7 5-4 12-17 8-10 10-15 8-15 24-54 3-5h11l-5 9-7 14-8 19-7 15-11 21-14 20 5-5 12-16 11-15 11-19 17-37 7-16 5-9 3-3 5-1 3 8 5-3 2-2 5 1-1 6-1 3 5-2 4-1 2-5 6-1 4 1-1 7-9 19h4l10-17 5-9h4l3 5-3 9 4 1 4-1 1 4 3-1 4-5h6l1 4-4 9 1 9-6 11v4l4 2-4 12-15 34-14 29-12 19-11 14-12 16-8 8 7-6 11-9 10-12 8-11 11-15 10-17 11-24 12-28 5-15 8 4-5 13-13 30-12 25-8 14-10 14-10 13-9 12-15 14-13 10-23 12-6 3-7 2-10 9-16 11-21 11-19 7-5 1 1-2h3v-2l-2 1-19 1h-19l-27-2-17-5-13-5-17-8-17-10-12-9-12-11-14-14-5-7-2 3-4-2-8-12-2-7-6-9-1-5-15-26-10-18-11-23-2-1-1-5-8-19-10-30-10-38-3-21-4-51-1-20v-33l2-40 5-52 7-37 7-29 7-21 6-17 8-25 9-24 10-23 12-25 10-16 7-9 13-19 11-14 14-15 7-8 18-18 15-10 14-12 11-7 15-8 23-8 18-6 19-3zm144 51m2 3m1 1 2 5 4 6 1-2-6-9zm7 11 1 3v-3zm2 3 1 3v-3zm-320 26-11 13-24 34-9 14-8 16-9 19-13 33-6 18-6 20-7 18-8 30-6 29-5 33-4 46-1 22v39l1 9h1l2-46 3-37 4-33 6-34 8-32 24-72 12-30 16-38 9-19 10-18 9-13 12-17 1-4zm111 18m-2 1-6 4-12 13-12 14-12 17-10 14-9 14-12 23-11 25-11 30-9 29-7 20-6 21-5 25-3 23-3 34-1 26v27l4 60 2 21 3 13h1l-1-17-2-30-1-23v-14l1-29 4-50 4-30 6-31 7-26 25-75 12-28 12-25 8-14 14-19 11-16 9-11 11-12 1-3zm207 54-7 11-5 12 1 2 6-9 5-11 1-5zm-13 25 1 2zm-1 2m-1 2m-1 1m-12 18m-298 351 1 2zm309 117m-1 2m-1 2 1 2zm-1 2-11 19-5 10 1 2 8-13 8-16zm-112 14m95 17 1 2zm-1 2m-327 13m7 15m1 1m1 1m9 8m-2 2m3 0m279 8m-1 1m-1 1m-1 1m-202 34m1 1 3 2 10 4 10 2-3-3-16-5zm128 7m-3 1m-4 1-15 4-2 2 9-1 12-4z" fill="#FEB5BF"/>
<path transform="translate(1592,198)" d="m0 0h13l13 4 6 5 7 16 2 9-1 8-7 16-8 5-3 4-3-1-2-6-2-1 1 6-3-1-4-9-4-4-5 5-7 10-14 22-26 42-12 21-18 36-11 25-11 27-9 24-8 24-18 57-18 62-14 51-7 23-11 37-11 31-11 24-4 4v-5l6-10 11-28 12-36 15-52 8-28 7-25 9-32 16-52 10-31 9-26 14-35 14-32 17-34 8-14 7-12 15-24 12-19 22-33-5 5-13 18-12 19-15 24-12 20-9 16-12 23-13 28-18 44-15 44-17 54-15 52-16 57-17 58-11 31-10 24-6 11-7 6-7 5-7-2-5-6-7-9-5-10-4-16-2-14-3-43-3-70-2-17v-23l1-14h2v-57l-2-25-15 39-17 45-13 32-13 30-13 27-16 26-12 17-13 19-10 14-2 3-1 5-11 9-12 9-9 5-5 1-3-1-4 1-4-2-2-4-3-1-2-4-4-2 1-5 3-3 1-5 8-5 6-4 10-10 8-13 7-11 13-19 12-18 15-29 13-29 18-45 16-42 12-31 11-27 13-31 7-19 3-12 3-1 1 5-11 28-15 36-17 43-14 37-10 26-12 29-11 25-11 23-10 17 6-8 8-13 11-22 16-38 14-36 16-42 11-28 15-37 8-20 7-21 5-11 12 1 9 2 9 3 1 11 2 6 3 45 3 40v110l1 25 1 43 1 10 12-41 16-58 13-44 12-39 14-44 13-34 15-35 17-36 13-24 14-23 11-17 12-20 12-17 11-14 12-14 7-7 10-8zm-54 63m-1 1m-2 4m-3 4-1 2h2zm-2 4m-1 1m-1 2m-13 21m-1 2m-2 3m-3 4-1 3h2zm-2 4-8 13-12 22-14 29-13 30-13 33-10 28-4 14-8 24-8 26-7 25-7 23-11 40-6 21-13 44v7l2-3 9-29 19-68 17-58 13-41 8-25 10-29 13-32 14-33 23-46 7-12zm-296 348 1 2zm-1 2m-1 1m-1 2m-1 1m-1 2m-2 3m-2 3m-1 1m-2 3m-1 1m-1 2m-1 1m-1 1v3zm-2 3-7 10-3 5 1 2 10-15zm-11 17v3zm-2 3m-1 1 1 2z" fill="#FEB5BF"/>
<path transform="translate(1824,287)" d="m0 0h20l16 3 16 7 13 10 9 12 9 17 4 15 1 9v14l-5 29-7 19-8 16-7 11 7-8 8-14 4-8 4-13 3-21h1v14l-2 12-6 15-5 10-10 14-7 7-13 10-17 11-18 10-15 6-19 3-13 1h-30l-25-4-34-7h-4v19l-1 39v28l2 42 3 32 7 40 5 23 1 3v9l-4 1-1-7-3 7-7 6-6 4-6-1-5-5-3-5-5-5-4-9-11-65-3-32-1-15-1-31v-20l2-63-3-1v-3l-37 3-19 1-4 4-12 21-34 56-10 19-4 8h-2l1-7 7-11 10-18 8-13 17-28 16-27 2-4-5 5-19 32-16 26-11 19-10 19-4 8-11 9-5 1-8-7-1-5-7-3 2-8-3 1-2-1 3-10 10-19 17-28 10-17 11-18 1-3h-5v-5l4-6-5 3h-3l2-5 5-3 5-5 15-9 2-1 5-10 14-24 14-25 15-27 14-25 12-19 9-13 6-3 5-6 19 3 11 6v8l2 4 2 33 4 54 1 16v26l10 1 47 9 9 1h21l28-3 18-8 14-9 8-7 8-13 8-17-7 3-4 5-8 1h-24l-14-2-13-5-10-7-9-11-7-14-2-8v-15l4-16 8-16 6-9 10-10 10-7 8-4zm-37 25m-1 1 1 2zm-1 2m-143 1 1 2zm142 0-7 12-5 14-2 9v6l2-3 5-16 8-19zm-143 2m-1 1-10 15-14 24-14 26-14 24-8 15-10 17-7 12 3-1 9-14 13-22 10-17 6-11 15-28 13-23 9-15zm193 3-8 3-6 4-4 5-5 10-3 14 3 12 3 5 5 2h31l15 3 8 2-1-28-3-12-7-11-8-6-8-3zm-184 50-10 18-12 22-16 27-3 5 1 2 5-5 14-23 6-11 8-14 6-12 2-9zm0 9-6 12-13 23-12 21-4 6v2l40-1-1-28-2-33zm223 4 1 4zm-1 4v3l-3 1 1 2 3-2zm-1 9-8 18-2 6 4-4 5-10 2-10zm-11 24v3zm-2 3m26 25m-1 1m-1 1m-339 36m-1 1-13 21-16 27-10 17-7 14-1 8 3-4 10-21 16-27 7-12 12-20z" fill="#FEB5BF"/>
<path transform="translate(1102,160)" d="m0 0h14l12 2 12 6 7 6 6 11 3 12 1 15v17l-5 33-6 25-6 19-8 21-11 24-13 24-14 23-12 18-13 18-11 14-5 7-4 7-15 16-15 14-8 7-20 18-11 9-10 9-14 11-13 10-11 8-4 4-3 15-4 25-3 27v8l-1 7 1 2v35l2 55 2 25 4 13 9 20 10 18 10 14 9 11 9 6 10 3h22l9-2 13-7 6-4 16 3 9 4-2 8-4 8h2 2l1-3 3-1v4l-8 7-20 13-11 5-14 2h-26l-16-4-12-5-11-8-14-14-14-19-12-20-8-16-8-18-5-15-3-36-3-48v-20l1-20 5-41 2-17h-10l-16 2v-2h-2l-5-6-1-2-4-2v-5h3l-1-5 4-7 18-3 16-6 6-4 1-9 10-43 9-31 15-47 18-55 10-29 11-25 14-27 13-21 10-14 9-11 13-17 11-12 17-17 11-9 13-10 16-9zm7 33-12 6-10 8-10 9-5 5-8 9h-3l-5 5-13 16-12 17-12 19-10 18-11 22-11 28-14 43-18 56-12 40-5 19 1 4 2-5h3l8-7 14-12 12-11 10-9 13-12 13-13 7-8 12-14 13-18 9-14 15-25 14-25 12-25 8-21 8-27 5-23 2-13v-21l-1-18-1-3zm11 44-4 23-8 29-10 28-16 33-14 24-10 16 1 2 11-15 11-18 10-18 12-25 8-22 8-31 3-20v-6zm-117 12m-1 1 1 2zm-1 2m-1 1-7 10-13 22-13 25-7 16-10 27-12 36-4 13-15 47-9 29-6 22-7 30-3 12-1 5 3-3 6-21 8-32 10-34 23-70 13-40 11-28 15-31 10-17 6-12 3-4zm57 139v3zm-2 3m-1 2m-117 120m-50 70-1 1v9h1l1-10zm-2 12v5h1v-5zm-1 7v6h1v-6zm-1 6m0 3 1 2z" fill="#FEB5BF"/>
<path transform="translate(781,437)" d="m0 0h11l15 3 10 5 6 5 3 6 1 4v13l-3 11-9 19-12 18-13 17 5-4 11-14 14-22 6-12 2-8 1-9h1v14l-4 10-7 13-13 18-10 13-11 13-16 17-16 16-7 8-13 16-7 8-9 8-17 13-6 4v18l2 12 4 11 7 10 5 6 10 8 14 8 12 5 6 1h14l12-2 27-10 18-8 16-8 5-2 16 4 6 3 2 4-3 6-3 5 7-3h3l-2 4-11 8-14 9-17 9-23 9-19 6-10 2-10 1h-17l-11-2-13-5-23-12-12-9-6-5-14-16-9-15-7-15-3-9v-5l-19 9-15 5-24 4-26 2h-7l-4-4-2-1-1-8h-5l-1-1v-5l1-2-5-2 1-4h5l1 1 2-6 8-2 36-5 17-4 15-6 16-8 4-4 3-20 10-37 10-30 11-23 9-14 8-11 9-10 7-8 12-11 17-12 12-6zm-5 36-9 3-11 8-9 10-10 14-8 13-11 21-10 27-2 7 7-6 12-13 13-13 7-8 9-10 13-18 11-16 10-18v-1zm13 2-3 5-2 6 3-3 3-6zm-6 11m-1 2m-1 1 1 2zm-35 2m-1 1m-1 1v3zm-45 1m-1 1m44 1-9 10-12 19-8 16-7 19-7 23 1 2 5-10 9-26 8-18 11-19 10-14zm-46 2v3zm-2 3-2 5 3-3zm-3 5-8 14-9 21-5 15-8 27-7 30-1 7 2-2 6-22 8-29 9-27 9-21 5-10z" fill="#FEB5BF"/>
<path transform="translate(1128,465)" d="m0 0 17 1 15 4 10 5 8 7 4 9 1 10-4 12-7 13-10 15 3-3h2l2-4 7-10 9-18v7l-5 10-8 11-9 10-11 10-11 9-17 12-14 8-17 8-14 4-11 1h-39l-5-1-7 23v13l3 11 4 6 10 7 4 1h11l22-2 25-9 23-10 22-12 6-1 15 3 5 3 5 1-2 5-5 9 4-1h7l-3 3-16 10-9 6-19 10-29 12-15 5-9 2-20 2h-25l-9-3-10-5-9-7-11-11-10-16-5-12-1-12 2-16 6-20 10-26 11-20-4 5-12 23-7 18-4 16-2 16h-1v-19l5-18 11-25 13-21 11-14 9-10 7-8 10-10 14-11 15-10 15-7 16-2zm-7 35-22 2-9 4-11 7-12 11-8 10-10 13-10 14-1 3h14l24-3 17-7 11-6 13-10 12-11 8-10 8-13v-3l-2-1zm24 6m-1 1v3zm-2 3v3zm-79 16m-1 1m-1 1m-1 1-10 10-10 13-7 11h3l5-6 14-19 6-7zm-49 5m-1 1m-1 1m-1 1-2 5 3-3zm152 5m-141 52-3 7-2 9v9l2-3 2-9 3-7v-5z" fill="#FEB5BF"/>
<path transform="translate(1038,264)" d="m0 0v3l-11 18-10 18-10 19-13 32-12 35-9 29-11 34-10 32-5 17-2 2 2-11 7-24 16-50 10-32 14-40 10-24 10-20 13-22 10-15z" fill="#FEB5BF"/>
<path transform="translate(1324,493)" d="m0 0 1 4-12 33-18 47-12 29-11 25-12 24-12 19-11 16-2 1 2-5 12-18 9-15 8-16 9-19 15-36 14-36 15-40z" fill="#FEB5BF"/>
<path transform="translate(1150,284)" d="m0 0 1 4-6 20-9 24-9 19-11 20-10 17-13 20-10 14-1-2 7-10 11-17 9-15 9-16 12-23 8-19 7-20z" fill="#FEB5BF"/>
<path transform="translate(1822,329)" d="m0 0v3l-9 20-2 6h-1l1-9 8-16z" fill="#FEB5BF"/>
<path transform="translate(925,591)" d="m0 0h2l-1 10-2 9-2-1z" fill="#FEB5BF"/>
<path transform="translate(1634,239)" d="m0 0 2 4-1 7-7 5 2-4 2-3 1-8z" fill="#FEB5BF"/>
<path transform="translate(922,618)" d="m0 0h1l-1 13-2 8h-1l1-12z" fill="#FEB5BF"/>
<path transform="translate(513,266)" d="m0 0 8 1-1 2h-14l-1-2z" fill="#FEB5BF"/>
<path transform="translate(929,568)" d="m0 0h2l-1 10-3 7-1-2z" fill="#FEB5BF"/>
<path transform="translate(441 1e3)" d="m0 0h6l-4 3h-9l1-2z" fill="#FEB5BF"/>
<path transform="translate(584,411)" d="m0 0v3l-6 9-1-2 6-9z" fill="#FEB5BF"/>
<path transform="translate(412 1e3)" d="m0 0 9 1v2h-6z" fill="#FEB5BF"/>
<path transform="translate(1214,720)" d="m0 0v3l-7 8v-3z" fill="#FEB5BF"/>
<path transform="translate(496,267)" d="m0 0 2 1-5 2h-8v-1z" fill="#FEB5BF"/>
<path transform="translate(535,267)" d="m0 0 8 1v2l-8-1z" fill="#FEB5BF"/>
<path transform="translate(1155,259)" d="m0 0h1v9l-1 5h-1z" fill="#FEB5BF"/>
<path transform="translate(553,381)" d="m0 0 3 1-5 4 1-4z" fill="#FEB5BF"/>
<path transform="translate(1371,541)" d="m0 0h1l1 10-2-1z" fill="#FEB5BF"/>
<path transform="translate(944,503)" d="m0 0 1 3-2 5-1-4z" fill="#FEB5BF"/>
<path transform="translate(1043,257)" d="m0 0v3l-4 4 2-5z" fill="#FEB5BF"/>
<path transform="translate(264,858)" d="m0 0 3 2v5l-2-2z" fill="#FEB5BF"/>
<path transform="translate(841,567)" d="m0 0 3 3v2h-2z" fill="#FEB5BF"/>
<path transform="translate(1144,739)" d="m0 0 1 2-3 1-3-2z" fill="#FEB5BF"/>
<path transform="translate(1217,716)" d="m0 0v3l-2 1z" fill="#FEB5BF"/>
<path transform="translate(1224,706)" d="m0 0v3l-2 1z" fill="#FEB5BF"/>
<path transform="translate(1072,434)" d="m0 0v3l-2 1z" fill="#FEB5BF"/>
<path transform="translate(1078,426)" d="m0 0v3l-2 1z" fill="#FEB5BF"/>
<path transform="translate(1081,422)" d="m0 0v3l-2 1z" fill="#FEB5BF"/>
<path transform="translate(1156,252)" d="m0 0h1v6h-1z" fill="#FEB5BF"/>
<path transform="translate(1046,253)" d="m0 0v3l-2 1z" fill="#FEB5BF"/>
<path transform="translate(1049,249)" d="m0 0v3l-2 1z" fill="#FEB5BF"/>
<path transform="translate(1158,239)" d="m0 0h1v6h-1z" fill="#FEB5BF"/>
<path transform="translate(463 1e3)" d="m0 0h5v1h-5z" fill="#FEB5BF"/>
<path transform="translate(924,610)" d="m0 0h1v5h-1z" fill="#FEB5BF"/>
<path transform="translate(1912,379)" d="m0 0h1v5h-1z" fill="#FEB5BF"/>
<path transform="translate(298,914)" d="m0 0 2 1-1 2z" fill="#FEB5BF"/>
<path transform="translate(1219,713)" d="m0 0v3z" fill="#FEB5BF"/>
<path transform="translate(1221,710)" d="m0 0v3z" fill="#FEB5BF"/>
<path transform="translate(1226,703)" d="m0 0v3z" fill="#FEB5BF"/>
<path transform="translate(1228,700)" d="m0 0v3z" fill="#FEB5BF"/>
<path transform="translate(1230,697)" d="m0 0v3z" fill="#FEB5BF"/>
<path transform="translate(1232,694)" d="m0 0v3z" fill="#FEB5BF"/>
<path transform="translate(1234,691)" d="m0 0v3z" fill="#FEB5BF"/>
<path transform="translate(1535,476)" d="m0 0 2 1h-3z" fill="#FEB5BF"/>
<path transform="translate(1065,443)" d="m0 0v3z" fill="#FEB5BF"/>
<path transform="translate(1068,439)" d="m0 0v3z" fill="#FEB5BF"/>
<path transform="translate(1151,280)" d="m0 0 1 4z" fill="#FEB5BF"/>
<path transform="translate(1153,273)" d="m0 0 1 4z" fill="#FEB5BF"/>
<path transform="translate(1051,246)" d="m0 0v3z" fill="#FEB5BF"/>
<path transform="translate(1054,242)" d="m0 0v3z" fill="#FEB5BF"/>
<path transform="translate(918,639)" d="m0 0" fill="#FEB5BF"/>
<path transform="translate(1152,277)" d="m0 0" fill="#FEB5BF"/>
<path transform="translate(447 1e3)" d="m0 0 2 1z" fill="#FEB5BF"/>
<path transform="translate(274,879)" d="m0 0" fill="#FEB5BF"/>
<path transform="translate(273,877)" d="m0 0" fill="#FEB5BF"/>
<path transform="translate(272,875)" d="m0 0" fill="#FEB5BF"/>
<path transform="translate(271,873)" d="m0 0" fill="#FEB5BF"/>
<path transform="translate(270,871)" d="m0 0" fill="#FEB5BF"/>
<path transform="translate(269,869)" d="m0 0" fill="#FEB5BF"/>
<path transform="translate(268,867)" d="m0 0" fill="#FEB5BF"/>
<path transform="translate(267,865)" d="m0 0" fill="#FEB5BF"/>
<path transform="translate(263,856)" d="m0 0" fill="#FEB5BF"/>
<path transform="translate(262,853)" d="m0 0" fill="#FEB5BF"/>
<path transform="translate(260,849)" d="m0 0" fill="#FEB5BF"/>
<path transform="translate(249,821)" d="m0 0" fill="#FEB5BF"/>
<path transform="translate(248,818)" d="m0 0" fill="#FEB5BF"/>
<path transform="translate(1325,491)" d="m0 0" fill="#FEB5BF"/>
<path transform="translate(1326,489)" d="m0 0" fill="#FEB5BF"/>
<path transform="translate(1075,430)" d="m0 0" fill="#FEB5BF"/>
<path transform="translate(590,401)" d="m0 0" fill="#FEB5BF"/>
<path transform="translate(483,270)" d="m0 0 2 1z" fill="#FEB5BF"/>
<path transform="translate(462,1006)" d="m0 0" fill="#FEB5BF"/>
<path transform="translate(312,934)" d="m0 0" fill="#FEB5BF"/>
<path transform="translate(297,913)" d="m0 0" fill="#FEB5BF"/>
<path transform="translate(276,883)" d="m0 0" fill="#FEB5BF"/>
<path transform="translate(275,881)" d="m0 0" fill="#FEB5BF"/>
<path transform="translate(274,876)" d="m0 0" fill="#FEB5BF"/>
<path transform="translate(271,870)" d="m0 0" fill="#FEB5BF"/>
<path transform="translate(265,857)" d="m0 0" fill="#FEB5BF"/>
<path transform="translate(261,852)" d="m0 0" fill="#FEB5BF"/>
<path transform="translate(259,847)" d="m0 0" fill="#FEB5BF"/>
<path transform="translate(251,824)" d="m0 0" fill="#FEB5BF"/>
<path transform="translate(250,823)" d="m0 0" fill="#FEB5BF"/>
<path transform="translate(1203,733)" d="m0 0" fill="#FEB5BF"/>
<path transform="translate(1204,732)" d="m0 0" fill="#FEB5BF"/>
<path transform="translate(1205,731)" d="m0 0" fill="#FEB5BF"/>
<path transform="translate(921,641)" d="m0 0" fill="#FEB5BF"/>
<path transform="translate(927,590)" d="m0 0" fill="#FEB5BF"/>
<path transform="translate(929,586)" d="m0 0" fill="#FEB5BF"/>
<path transform="translate(1372,552)" d="m0 0" fill="#FEB5BF"/>
<path transform="translate(1055,454)" d="m0 0" fill="#FEB5BF"/>
<path transform="translate(1056,453)" d="m0 0" fill="#FEB5BF"/>
<path transform="translate(1057,452)" d="m0 0" fill="#FEB5BF"/>
<path transform="translate(1058,451)" d="m0 0" fill="#FEB5BF"/>
<path transform="translate(1059,450)" d="m0 0" fill="#FEB5BF"/>
<path transform="translate(1060,449)" d="m0 0" fill="#FEB5BF"/>
<path transform="translate(1061,448)" d="m0 0" fill="#FEB5BF"/>
<path transform="translate(1062,447)" d="m0 0" fill="#FEB5BF"/>
<path transform="translate(1063,446)" d="m0 0" fill="#FEB5BF"/>
<path transform="translate(1066,442)" d="m0 0" fill="#FEB5BF"/>
<path transform="translate(1069,438)" d="m0 0" fill="#FEB5BF"/>
<path transform="translate(1073,433)" d="m0 0" fill="#FEB5BF"/>
<path transform="translate(1074,432)" d="m0 0" fill="#FEB5BF"/>
<path transform="translate(591,400)" d="m0 0" fill="#FEB5BF"/>
<path transform="translate(1809,358)" d="m0 0" fill="#FEB5BF"/>
<path transform="translate(1157,249)" d="m0 0" fill="#FEB5BF"/>
<path transform="translate(1052,245)" d="m0 0" fill="#FEB5BF"/>
<path transform="translate(1055,241)" d="m0 0" fill="#FEB5BF"/>
<path transform="translate(1056,240)" d="m0 0" fill="#FEB5BF"/>
<path transform="translate(1058,237)" d="m0 0" fill="#FEB5BF"/>
<path transform="translate(1059,236)" d="m0 0" fill="#FEB5BF"/>
<path transform="translate(1060,234)" d="m0 0" fill="#FEB5BF"/>
<path transform="translate(1061,233)" d="m0 0" fill="#FEB5BF"/>
<path transform="translate(1062,231)" d="m0 0" fill="#FEB5BF"/>
</svg>
