<?xml version="1.0" encoding="UTF-8"?>
<svg version="1.1" viewBox="0 0 1080 1080" width="1280" height="1280" xmlns="http://www.w3.org/2000/svg">
<path transform="translate(473,549)" d="m0 0 5 3v-2h2v2h4v-2l3 1 1 4 2-5h2l2 5h3l3-1 1 14v11l-2 11-5 72-2 27v53l2 21 3 19-3-29v-43l3-47 5-68 1-11v-12l-1-3 1-2h2v20l-7 91-2 47v20l2 23 4 27 9 13 5 4 10-1 8-6 3-1 6-8 4 2 2 2 6-3-1 5-1 4 7-9 2 4 4 1 2-1-2 11-5 10 4-4-1 4-1 3 2 1-16 10-8 6-6 3-11 1h-11l-14-5-11-7-8-7-18-30-4-13-4-33-1-26 1-41-10 4-6 4-4 5-3 1h-10l-12-6-10-9-4-6-2-1-1 24-2 39-2 2 3-67-2-5-1 7-2 38v23l2 16v12l-4 3h-2v9h-4v-2h-2v5l-2 4h-2l-2-11-1 2v7l-2-4-1-4h-2l-2-8-1 6-5-2-1-6-3-3-3-20v-33l2-41 3-74 1-20h3l1 5 4-1 1-11h4l4-1 3 2 4-1 1 4h2v-4l4 1 1 3 5-1 3 6 2 7 3 7 9 41 5 14 8 13 2 1 2-5 12-27 10-25 9-24 6-19 2-1 2 8 5-15zm-10 16-4 10-5 15-13 33-11 25-5 10 1 3 4-5 7-12 11-25 11-28 4-12 1-6v-8zm-106 13-1 9-4 96-2 38v13l3 24h1l-1-20 3-64 1-32 2-41v-19zm42 19 1 2zm1 3m2 10m58 49-1 5 2-2zm-2 5m1 3-2 8 3-1 1-7zm-4 3m-1 1 1 2zm-1 2v3zm-2 3 1 2zm3 0-4 6 1 2 4-3v-5zm4 1-1 2-1 12v59l1 9h1l1-58 1-24zm-8 1m-32 13v2l3-1zm12 2-3 3 7-1v-2zm-76 65 1 3zm104 2m10 30 1 2zm36 48 1 2h5l-3-2zm36 0m-4 1-4 2 4 1 4-3z" fill="#3E232C"/>
<path transform="translate(233,341)" d="m0 0 14 2 12 4 10 6 4 5 4 9 3 4 2 8v14l-5 9-6 9h-3l-1-2-5 6h-2l-2 3-4 1-4 6h-3l-1-3-3 3-1-2-4-1 1-5 1-2-4 4h-2l1-6-4 3h-2l-1-6 4-7v-4l-5 8-4-1 1-4 6-9 2-6-1-12-9 1v2l-9-1-5 3-7 1-8 2-10 11-9 14-6 12-7 22-5 22-2 20v11l2 26 6 30 8 16 8 11 10 9 10 7 5 2h11l11-3 8-5 10-15 8-20 4-8 4-1 1 2-4 9-4 10v2l6-14 6-15 1-2h10v2l4-3 4 1-2 7 5-9 3 1v4l9-1v8l-1 5-1 7-6 16-5 10 1-1 8-16 6-18h4l-1 7-8 21-10 15-5 6h-2l-2 4-11 7-8 5-9 7-16 8-6 1-15 3-1-2h-9l-17-4-13-5-5-3-4-1-10-8-15-15-8-12-6-10-9-17-4-13-5-23-2-18v-32l4-22 5-20 9-23 7-10 6-9 12-14 14-12 9-6 20-8 15-3zm43 36-2 18-3 6 1 2 5-7 1-3v-14zm-40 11 1 3 1-3zm-61 8 1 2 1-2zm-1 2-5 7 1 2 5-7zm-46 4 1 2zm142 1m-143 1-5 10-7 21-6 24-2 22h2l3-22 5-19 5-16 4-13 2-4zm142 1m-101 2 1 2zm-1 2-5 8-6 16-5 19-4 20v25l1 11 2 3v-31l2-19 6-23 6-18 4-9zm-59 92 1 2zm142 67m33 18m-2 2 1 2 1-2zm-1 2-2 4 3-2z" fill="#060305"/>
<path transform="translate(934,518)" d="m0 0h12l6 4 3 7 1 12v7h-2l-1 13-5 22 13 1 6 4 6 9 6 17 5 25 5 10 4 3 2-5 7-16 2 1 3-11v-8l4-8 7 1 2 1 1 4-4 21-5 13-3 7-2 5-3 3-7 4-1 1h-7l-7-4-6-7-6-12-5-19-3-15-4-9-2-3-5 1-2 2-3 4-7 23v12l-3-1-1 2-3 1v2l-5-2-2-3-4 2-6 5-11 7-13 2-11-2-10-5-7-6-3-3-4 9-4 4-7 4-9-3-9-7-7-11-2-8v-7l-9 2 1 4v19l-2 11-4 8-9 6h-10l-9-6-6-8-2-6-3-24-1-2-6 6 2 16-1 2-2 9-3 5-1 4-7 7-10 6-9 1-8-4-6-8-2-1-2 4-5 6-15 10-5 1h-10l-8-4-7-10-3-8-2-17 6-18 2-4 7-6 8-2h9l8 3 2 2-1 4-1 3-5 1-2-1-11 1-5 5-3 8 3 21 3 8 1 1h9l9-6 8-11 2-4h2l3-29 2-9 3-3 13-1h12l9 3 5 2 8-6 9-1 7 3 3 7 4 30 2 5 3 3 4-1 4-6v-19l-3-16h3l1-3 16-5 8-4 6-5h8l3 1-1 5h2l-2 4-2 1-3 10 1 10 5 9 6 4 3-9h2l6-15 5-14 1-5 5-5 6-4 3-1h14l9 3v5h2v2l-8 5-2-1h-7l-5 4-5 5-2 5 1 11 2 5 7 6 9 2 10-2 6-4h2l2-4 9-14v-11l-3-28v-18l2-13h2l3-10v-6l7-9zm-9 11m14 1m-15 1 1 2zm14 0m-1 2-4 9-3 14v9l-1 2 2 9v10h2l-1 5h2l5-19v-10l2-12v-14l-2-3zm17 11 1 2zm-13 9 1 2zm-23 1 1 2zm23 3m-1 2 1 3zm-23 3m23 1m-1 1 1 3zm-22 3m-98 50 1 2zm-90 4-5 3-1 3v7l2 1h7l10-9-2-4-6-1zm207 13 1 2zm-89 1m155 0 1 2zm-1 2m-1 3m-256 0-8 5-11 1h-3l1 11 3 8 7 1 5-4 6-9 2-11zm2 5 1 3zm51 0 1 3zm-51 4m-1 1 1 2z" fill="#883B4D"/>
<path transform="translate(645,297)" d="m0 0h7l5 2 4 5 3 7-1 4-7 5-6-1v-2l-4 1-9 16-7 12-8 18-6 17-5 16-10 47-5 24-6 26-4 10-5 3-2 2h-5l-5-4-5-8-5-19-7-35-2-23-1-5-9 30-7 19-7 14-9 14-6 8-7 7-8 5-6-1-5-5 3-5 6-4 16-26 9-22 7-23 9-29 5-14 1-6h3l2-4h9l4 2 3 10 7 31 4 34 2 10v6h2l1-9 7-36 9-36 7-20 9-21 13-23 8-12 4-5 7-6z" fill="#863A4B"/>
<path transform="translate(473,549)" d="m0 0 5 3v-2h2v2h4v-2l3 1 1 4 2-5h2l2 5h3l3-1 1 14v11l-2 11-5 72-2 27v53l2 21 3 19-3-29v-43l3-47 5-68 1-11v-12l-1-3 1-2h2v20l-7 91-2 47v20l2 23 4 27 9 13 5 4 10-1 8-6 3-1 6-8 4 2 2 2 6-3-1 5-1 4 7-9 2 4 4 1 2-1-2 11-5 10 4-4-1 4-1 3 2 1-16 10-8 6-6 3-11 1h-11l-14-5-11-7-8-7-12-20-1-2h3l1-3-2-2h3l3 3 1 3 1-1-1-20-1-29 1-17 2-20-1-8-2-22-1-15 2-17v-25l-2-12-1-5-1-13-3-3-2-1v-2l4-1 3 4v-12l-3-1-1-3-1-2h2l1-16-2-2-2 2 1-5 3-10zm31 289 1 2h5l-3-2zm36 0m-4 1-4 2 4 1 4-3z" fill="#512435"/>
<path transform="translate(444,310)" d="m0 0h11l7 3 5 6 3 15v13l-3 15-8 19-10 18-8 11-9 11-19 19-8 7-11 9-1 5-1 26 3 21 4 18 5 8 9 10 7 5 9 1 9-2 7-4h11l2 5-1 4-10 7-3 2-11 2h-14l-10-4-8-6-8-7-10-13-4-9-5-23-1-10v-24l-7 2-5-1-5-4v-3h2l1-3 15-5 3-22 6-28 8-30 5-12 9-16 10-14 15-15 10-6zm2 13-8 6-7 7-10 15-8 16-5 13-5 20-7 31v4l4-2 20-20 11-15 10-18 6-13 4-14 1-7v-16l-2-7z" fill="#30141D"/>
<path transform="translate(743,315)" d="m0 0h15l11 4 7 6 5 9 2 17-1 6-5 10-9 9-14 9-10 4-17 3h-14l-14-1 2 14 3 22 5 21 7 18v4l-7 4-4 1-6-4-4-7-8-24-4-20-2-15v-7l-1-7-24 4-2 5-14 27-3 7-7 5h-5l-5-4-2-4 9-19 6-11-1-8 8-7h2l2-5 8-16 9-19 8-13 4-4h10l4 2 7 28 3 15v3h33l15-4 10-6 6-9-1-1-6 2-13 1-9-2-8-6-3-5v-10l4-10 8-8 6-3zm4 13-5 4-2 6v7l1 1 23-1-1-9-4-6-4-2zm-73 32-10 20 9-1 5-1v-8l-3-10z" fill="#883B4D"/>
<path transform="translate(934,518)" d="m0 0h12l6 4 3 7 1 12v7h-2l-1 13-5 22 13 1 6 4 6 9 6 17 5 25 5 10 4 3 2-5 7-16 2 1 3-11v-8l4-8 7 1 2 1 1 4-4 21-5 13-3 7-2 5-3 3-7 4-1 1h-7l-7-4-6-7-6-12-5-19-3-15-4-9-2-3-5 1-2 2-3 4-7 23v12l-3-1-1 2-3 1v2l-5-2-2-3-4 2-6 5-11 7-13 2-11-2-3-2 6-1 3 1v2l5-1 1-4-3-2v-2l-6-1 4-1 11-1 8-5h2l2-4 9-14v-11l-3-28v-18l2-13h2l3-10v-6l7-9zm-9 11m14 1m-15 1 1 2zm14 0m-1 2-4 9-3 14v9l-1 2 2 9v10h2l-1 5h2l5-19v-10l2-12v-14l-2-3zm17 11 1 2zm-13 9 1 2zm-23 1 1 2zm23 3m-1 2 1 3zm-23 3m23 1m-1 1 1 3zm-22 3m19 67 1 2zm66 1 1 2z" fill="#9E465E"/>
<path transform="translate(329,420)" d="m0 0 13 2 4 5 2 7-4 10-12 17-13 14-8 11-10 8 1 9 4 6 7 5 11 3 12-1 19-9 7-4h10l2 1 1 7-15 10-15 7-11 3h-15l-13-4-11-6-7-7-4-6v-2l-13 6-17 4h-8l-5-4-2-4 5-4 17-4 12-5 6-4 4-23 5-15 7-12 9-10 10-7 9-3zm-3 14-6 3-8 9-8 16-1 7 4-3v-2h2l11-14 8-13v-3z" fill="#31141E"/>
<path transform="translate(609,621)" d="m0 0h8l3 1 5 9 11 12 7 6 6 10 2 6-1 11-6 5-8 5-5 1h-10l-4-4-1-4h2l1-3 16-3 1-7-2-7-3-3v-2l-4-2-11-11v-2l-4 2-1 4-8 8-15 10-3 13-2 7-5 7-17 12-8 5-13 1-10-5-6-8-2-4-1-7v-15h2l3-11 2-5 7-9 3-2 10-1 9-6h18l6 3 4 5 1 6 8-6 7-10 5-10h2zm-3 4m-41 21-6 2-6 5-1 5 2 3h9l10-4-1-10-1-1zm-38 10m11 5-3 7-1 4v7l1 4 2 9 4 4 9-1 13-9 6-7 3-6v-2l-6 1h-14l-8-5-5-6zm35 9 1 3 1-3z" fill="#572838"/>
<path transform="translate(760,609)" d="m0 0h7l-3 11-5 4-2 3 1 25-4 8-1 4-7 7-10 6-9 1-8-4-6-8-2-1-2 4-5 6-15 10-5 1h-10l-8-4-7-10-3-8-2-17 6-18 2-4 7-6 8-2h9l8 3 2 2-1 4-1 3-5 1-2-1-11 1-5 5-3 8 3 21 3 8 1 1h9l9-6 8-11 2-4h2l3-29 2-9 3-3 13-1h12l9 3 5 2zm-31 12-5 3-1 3v7l2 1h7l10-9-2-4-6-1zm15 19-8 5-11 1h-3l1 11 3 8 7 1 5-4 6-9 2-11zm2 5 1 3zm0 4m-1 1 1 2z" fill="#6B2D40"/>
<path transform="translate(466,412)" d="m0 0h15l8 3 3 5 1 7-7 11-11 10-14 9-7 3-20 3h-3v12l5 5 5 1 13-3 9-4 16-9 9-1 5 2 1 6-11 8-19 10-14 4-6 1h-9l-11-4-8-7-4-8-1-10 4-14 10-16 13-13 11-7zm2 13-13 3-10 9-9 12v1l9-1 11-4 11-8 7-9 1-3z" fill="#32141E"/>
<path transform="translate(503,567)" d="m0 0h2v20l-7 91-2 47v20l2 23 4 27 9 13 5 4 10-1 8-6 3-1 6-8 4 2 2 2 6-3-1 5-1 4 7-9 2 4 4 1 2-1-2 11-5 10 4-4-1 4-1 3 2 1-16 10-8 6-6 3-11 1h-11l-14-5-10-6v-1l5-1 1-3v-10l-1-17v-14l2-6-4 1-4-28v-14l2 2 2-2 2 21 3 19-3-29v-43l3-47 5-68 1-11v-12l-1-3zm1 271 1 2h5l-3-2zm36 0m-4 1-4 2 4 1 4-3z" fill="#86394A"/>
<path transform="translate(286,534)" d="m0 0 3 1v4l9-1v8l-1 5-1 7-6 16-5 10 1-1 8-16 6-18h4l-1 7-8 21-10 15-5 6h-2l-2 4-11 7-7 3v-2h3l-3-4-2-5-3-5-6-5-1-7-2-3h-3l-5 4 2-5 6-9 10-25 5-2 1 2-4 9-4 10v2l6-14 6-15 1-2h10v2l4-3 4 1-2 7zm-36 34m33 18m-2 2 1 2 1-2zm-1 2-2 4 3-2z" fill="#1F0D14"/>
<path transform="translate(546,373)" d="m0 0h9l4 2 3 18-1 5-2 14-4 9h-3l-3-11-2 4-8 25-9 27-8 15-6 9-2 7-10 10-8 5-6-1-5-5 3-5 6-4 16-26 9-22 7-23 9-29 5-14 1-6h3z" fill="#672C3F"/>
<path transform="translate(316,423)" d="m0 0h4v8l-3 3v7l-5 7-3 1-6 12-1 4h-2l-1 14-2 4h-2l-2 6-3 4-4 12-5 2-10 5-17 4h-8l-5-4-2-4 5-4 17-4 12-5 6-4 4-23 5-15 7-12 9-10 10-7z" fill="#210E15"/>
<path transform="translate(503,567)" d="m0 0h2v20l-7 91-2 47v20l2 23 4 27 9 13 6 5 5 1 1 10v14l-6 1h-12l5 3-2 1-9-2-10-6v-1l5-1 1-3v-10l-1-17v-14l2-6-4 1-4-28v-14l2 2 2-2 2 21 3 19-3-29v-43l3-47 5-68 1-11v-12l-1-3z" fill="#682C3F"/>
<path transform="translate(363,698)" d="m0 0h3l6 10 3 9 4 6v20l1 12v7l-5 1-2 5h-3l-3-3-1 4-2-1-3-13-3-22v-24l1-6 2 3 1-7z" fill="#1C0C12"/>
<path transform="translate(286,534)" d="m0 0 3 1v4l9-1v8l-1 5-1 7-6 16-5 10 1-1 8-16 6-18h4l-1 7-8 21-9 14-2-4-1-5h-2l-2-6-4-4-2-15v-19l-1-2h3v2l4-3 4 1-2 7z" fill="#31141D"/>
<path transform="translate(633,641)" d="m0 0 8 6 6 8 4 10-1 11-6 5-8 5-5 1h-10l-4-4-1-4h2l1-3 16-3 1-7-2-7-3-3v-2l-2-1h3z" fill="#6B2E41"/>
<path transform="translate(517,461)" d="m0 0 2 1-1 22-2 4-2 9-10 10-8 5-6-1-5-5 3-5 6-4 16-26 2-5h4z" fill="#592A3A"/>
<path transform="translate(182,387)" d="m0 0 2 1-1 2 3 1-6 8-9 14-7 19-7 26-2 12-1 21v2l-3 1v23l-2-1-1-8h1v-28l2-19 6-23 6-18 7-14 6-10 2-4z" fill="#2C151C"/>
<path transform="translate(642,321)" d="m0 0 1 2-13 23-8 18-6 17-5 16-10 47-5 24-6 26-3 8-1-3 6-25 15-75 7-23 4-10 5-12 14-26z" fill="#9E465E"/>
<path transform="translate(564,483)" d="m0 0 4 1v2l7 1 8 6 2 3v6l-6 7h-5l-5-4-4-6-2-13z" fill="#6A2D40"/>
<path transform="translate(543,796)" d="m0 0 4 2 2 2 6-3-1 5-1 4 7-9 2 4 4 1 2-1-2 11-5 10 4-4-1 4-1 3 2 1-6 4-3-1-1-6 4-6 1-6-5-1-7 3v-5l1-3-5 2-1-2-6 3 1-6z" fill="#9F4860"/>
<path transform="translate(355,573)" d="m0 0h3l1 5 2 1h-2l-1 3-1 5-4 96-2 38v13l3 24 2 1v5l-3-1-2-9-2-13v-33l2-41 3-74z" fill="#602E3C"/>
<path transform="translate(503,567)" d="m0 0h2v20l-7 91-2 47v20l2 23 2 18-3 1-1-15-2-19v-43l3-47 5-68 1-11v-12l-1-3z" fill="#9C465D"/>
<path transform="translate(488,742)" d="m0 0 2 2 2-2 2 21 3 19 1 4h2l2 9 9 13 5 5-5 1-3-2-3-5-6-7-4-9v-6l1-2-4 1-4-28z" fill="#6E3144"/>
<path transform="translate(459,674)" d="m0 0 1 3h-2l-1 14v59h2v11l3 19v7l-2-2-2-15v-7h-2l-2-12-1-26 1-41-5 1-1-5 5-5zm-5 2-4 6 1 2 4-3v-5z" fill="#723345"/>
<path transform="translate(875,588)" d="m0 0h14l9 3v5h2v2l-8 5-2-1h-7l-5 4-3 3v-4l3-3h2z" fill="#9E455E"/>
<path transform="translate(482,464)" d="m0 0 10 1 2 7-11 8-11 6-2-1 3-3 2-10v-2l-4 1 3-3z" fill="#4B2833"/>
<path transform="translate(548,409)" d="m0 0 2 1 2 7v11h-1l-2-13-9 30-7 19-7 14-9 14-2 2 1-5 11-19 6-16 9-27 5-17z" fill="#913D53"/>
<path transform="translate(478,550)" d="m0 0h2v2h4v-2l3 1 1 4 2-5h2l2 5h3l3-1 1 14v11l-2 4-1-10-2 1-1-10-9-2-3-2v-5l-3-1z" fill="#6C2F41"/>
<path transform="translate(275,373)" d="m0 0h2l1 2h3l1 4v14l-5 9-6 9h-3l-1-4 3-6h-2v-5l4-2h1zm1 4-2 18-3 6 1 2 5-7 1-3v-14z" fill="#2E161E"/>
<path transform="translate(836,574)" d="m0 0h9l2 1 2 6-1 3h-2l-2 4-3 2-5-1-4-5-1-5z" fill="#893B4D"/>
<path transform="translate(136,388)" d="m0 0h2l-2 5-4 8h-2l-1 2-5 8-7 20-2-3h-2l3-11 6-13 9-14z" fill="#210F15"/>
<path transform="translate(182,387)" d="m0 0 2 1-1 2 3 1-6 8-9 14-5 12h-2l-2 9-2 1 1-10 8-18 7-10 1-4z" fill="#1A0D11"/>
<path transform="translate(355,573)" d="m0 0h3l1 5 2 1h-2l-1 3-1 5-3 75h-1l-1-9v-16z" fill="#703343"/>
<path transform="translate(462,561)" d="m0 0 2 1-1 4-8 24-13 33-11 25-5 10h-2l2-5 12-27 10-25 9-24z" fill="#893A4F"/>
<path transform="translate(300,549)" d="m0 0h4l-1 7-8 21-9 14-3-6h3l2-5 7-16z" fill="#411D28"/>
<path transform="translate(541,377)" d="m0 0 3 1h-2v8l-6 18h-2l-1 8-4 14-3 9-3 11-3 8-2 4h-2l3-9 7-23 9-29 5-14z" fill="#914256"/>
<path transform="translate(495,778)" d="m0 0 2 4 1 4h2l2 9 9 13 5 5-5 1-3-2-3-5-6-7-4-9z" fill="#893A4D"/>
<path transform="translate(406,345)" d="m0 0 1 2-6 11-4 10-5 15-6 23h-2l-1 2 1-6 7-28 5-12 9-16z" fill="#462630"/>
<path transform="translate(257,544)" d="m0 0 3 1-8 20v5l-4 3-1-3-2 1 3-10 6-15z" fill="#351922"/>
<path transform="translate(601,433)" d="m0 0h2l-5 27-7 30-4 12-1-3 6-25 8-40z" fill="#9D445D"/>
<path transform="translate(236,383)" d="m0 0h2l1 7-1 2h-2l-2 10-2-3-5 8-4-1 1-4 6-9 2-5 4-1zm0 5 1 3 1-3z" fill="#211016"/>
<path transform="translate(543,796)" d="m0 0 4 2 2 2 6-3-1 5-3 5-2-2-5 2-1-2-6 3 1-6z" fill="#9D445C"/>
<path transform="translate(382,409)" d="m0 0 2 2-1 9-5 26-2 7-2-1 4-26z" fill="#4E2834"/>
<path transform="translate(402,399)" d="m0 0 2 2-4 16-3 14v6l-4 2 1-11 6-27h2z" fill="#5A2C39"/>
<path transform="translate(762,620)" d="m0 0 5 1 3 24v7l-2-4-3-24-1-2-6 6 2 16-1 2h-2l-1-19z" fill="#9C415A"/>
<path transform="translate(150,470)" d="m0 0h1l1 8h2v15l-3 1v23l-2-1-1-8h1v-28z" fill="#381A23"/>
<path transform="translate(611,343)" d="m0 0 1 2-7 16-3 8v2h-2l-2 11-4 11-3 13-2 1 4-19 8-23 9-21z" fill="#A04A62"/>
<path transform="translate(452,339)" d="m0 0h1l1 9-3 12-1 5-5 12-6 10-2 1 2-6 7-15 4-14z" fill="#693040"/>
<path transform="translate(610,393)" d="m0 0 1 4-8 36h-2l1-10 6-27z" fill="#9D435B"/>
<path transform="translate(503,567)" d="m0 0h2v20l-3 39-1 8h-1v-13l3-37v-12l-1-3z" fill="#9C415A"/>
<path transform="translate(543,836)" d="m0 0 4 2-10 6-2 1h-8l-11-1v-2l13-2 7 1 4-3z" fill="#98465B"/>
<path transform="translate(398,586)" d="m0 0 2 3 7 32-1 4-4-9-3-14v-5l-2-5z" fill="#953E55"/>
<path transform="translate(654,395)" d="m0 0h2l-2 5-14 27-3 7-5 2 2-3h2l1-7 14-26z" fill="#A14B63"/>
<path transform="translate(182,387)" d="m0 0 2 1-1 2 3 1-6 8-6 9h-3l-2 1 2-4 5-9 2-4z" fill="#2D171E"/>
<path transform="translate(459,674)" d="m0 0 1 3h-2l-2 20-1 5h-1v-18l-5 1-1-5 5-5zm-5 2-4 6 1 2 4-3v-5z" fill="#683040"/>
<path transform="translate(407,626)" d="m0 0 2 4 5 14 3 6-4 1-6-13-2-8z" fill="#632E3C"/>
<path transform="translate(686,618)" d="m0 0 7 1 3 3-1 4-1 3-5 1-2-1h-10l1-2 4-1h8v-5z" fill="#8A3A4D"/>
<path transform="translate(414,361)" d="m0 0h2l-2 6-5 13-3 13-2-2 1-9 6-17z" fill="#592C39"/>
<path transform="translate(288,453)" d="m0 0 1 4v2h-2l-1 9-4 22-2 3-2-1 1-1 4-23z" fill="#532936"/>
<path transform="translate(712,613)" d="m0 0 1 3-2 5-1 8-3 21-2 4-2-2h2l3-29 2-9z" fill="#923D53"/>
<path transform="translate(796,612)" d="m0 0 1 4 2 12v20l-2-3-2-21-2-10h3z" fill="#A14B62"/>
<path transform="translate(533,454)" d="m0 0 1 4-4 13-13 21-2 2 1-5 11-19z" fill="#903F53"/>
<path transform="translate(406,345)" d="m0 0 1 2-6 11-4 10-4 9-3 2 3-10 8-16z" fill="#592C39"/>
<path transform="translate(466,357)" d="m0 0h1l-1 7-6 15-3 6-2-3 8-19 2-2z" fill="#612E3C"/>
<path transform="translate(722,643)" d="m0 0 8 1 9-1-3 3-11 1-3-1 1 2 2 12 1 5-3-3-2-13-1-4h2z" fill="#913F54"/>
<path transform="translate(275,373)" d="m0 0h2l1 6h-1l-2 16-4 8-1-2h-2v-5l4-2h1z" fill="#371A23"/>
<path transform="translate(346,429)" d="m0 0 2 4-3 9-10 15-3 3 1-4 8-12z" fill="#562B37"/>
<path transform="translate(495,778)" d="m0 0 2 4 1 4h2l2 9-1 4-5-5-1-9z" fill="#823749"/>
<path transform="translate(541,435)" d="m0 0 1 3-8 24-2 2 2-13 5-15z" fill="#964157"/>
<path transform="translate(154,458)" d="m0 0h1v12l-1 8h-2l-1 2v-13z" fill="#0D070A"/>
<path transform="translate(295,572)" d="m0 0 1 3-7 11-4 5-2-6h3l2-5 3-4h3z" fill="#47202C"/>
<path transform="translate(674,356)" d="m0 0 2 2 4 17-1 3h-1l-3-16-1-1-4 9-2-1 2-6 3-6z" fill="#A6546A"/>
<path transform="translate(355,573)" d="m0 0h3l1 5 2 1h-2l-1 3-2 18h-1z" fill="#602E3C"/>
<path transform="translate(415,452)" d="m0 0h1v8l-2 9 1 12-2-2-2-9 1-9z" fill="#552A37"/>
<path transform="translate(134,590)" d="m0 0h3v2h2l9 11 7 6-1 3-17-17z" fill="#562A36"/>
<path transform="translate(257,544)" d="m0 0 3 1-5 13-2-3h-2l3-9z" fill="#3C1B25"/>
<path transform="translate(309,448)" d="m0 0 2 1-6 13-1 8-4 2 2-11z" fill="#4D2833"/>
<path transform="translate(244,415)" d="m0 0h2v3h3v5l1 2h-3l-1-3-3 3-3-3v-3z" fill="#3D1C26"/>
<path transform="translate(781,339)" d="m0 0h1l1 15-4 10-5 5 2-6 3-7z" fill="#9F4860"/>
<path transform="translate(454,385)" d="m0 0h2l-2 5-7 12-4 4 1-5 6-10z" fill="#582B38"/>
<path transform="translate(358,460)" d="m0 0h1l2 6 6 1h8l-1 8h-1v-7l-7 2-5-1-5-4v-3h2z" fill="#693040"/>
<path transform="translate(589,409)" d="m0 0 1 3-4 20-3 1 4-21z" fill="#A8586E"/>
<path transform="translate(402,399)" d="m0 0 2 2-4 16h-2l-1 3 1-10 2-9h2z" fill="#4D2733"/>
<path transform="translate(448,365)" d="m0 0 1 3-8 16-4 4 2-6 8-16z" fill="#542A37"/>
<path transform="translate(421,692)" d="m0 0 7 2 2 1h4v-2l-2-1h3l1 3-5 3h-10l2-1-1-2-3-2z" fill="#7D3749"/>
<path transform="translate(846,575)" d="m0 0 3 6-1 3h-2l-2 4-3 2-5-1-3-3v-2h2l3 3 4-1 3-3z" fill="#A8596E"/>
<path transform="translate(668,682)" d="m0 0 16 1h6l-1 2-5 1h-10l-6-3z" fill="#8F3C51"/>
<path transform="translate(618,677)" d="m0 0h1l1 5 3 3h7l10-2-4 3-5 1h-10l-4-4-1-4h2z" fill="#933E54"/>
<path transform="translate(601,433)" d="m0 0h2l-4 21-2-2 1-9 2-9z" fill="#A85A6F"/>
<path transform="translate(479,823)" d="m0 0 3 3h3l6 4v3l-3 1-8-7z" fill="#83384B"/>
<path transform="translate(273,400)" d="m0 0 1 2 2 1-5 8h-3l-1-4 2-4 3-1z" fill="#3D1C26"/>
<path transform="translate(529,840)" d="m0 0 4 1 2 2-15 1h-4v-2z" fill="#9C415A"/>
<path transform="translate(656,642)" d="m0 0h1v9l1 7v8l-2-2-2-17z" fill="#913D52"/>
<path transform="translate(500,561)" d="m0 0 1 4v14l-2 4-1-10-2 1v-6l2-1z" fill="#7C384B"/>
<path transform="translate(156,451)" d="m0 0h2l-2 13h-1l-1-5-2 8h-1l1-9 2-5z" fill="#321820"/>
<path transform="translate(280,375)" d="m0 0 2 4v11l-2 1-1-7-1-1v-7z" fill="#201016"/>
<path transform="translate(425,342)" d="m0 0 2 1-9 15-2 3-1-4z" fill="#552B37"/>
<path transform="translate(107,493)" d="m0 0h2l1 7v11h-2l-1-5zm1 8 1 2z" fill="#2E1920"/>
<path transform="translate(382,409)" d="m0 0 2 2-1 9-1 5-3 1 1-9z" fill="#562B37"/>
<path transform="translate(726,326)" d="m0 0 1 2-2 8h-2v11h-2v-10l4-10z" fill="#A04A62"/>
<path transform="translate(756,652)" d="m0 0 1 3-3 5-1 4-7 7-2-1 7-8z" fill="#953E55"/>
<path transform="translate(747,637)" d="m0 0h2l-1 12-3 1v-8l-3-2zm-1 8 1 3z" fill="#8D3B4F"/>
<path transform="translate(541,377)" d="m0 0 3 1h-2v8l-5 13-1-4 4-12z" fill="#8B3B4E"/>
<path transform="translate(666,647)" d="m0 0 3 3 2 17h-2l-3-16z" fill="#933D53"/>
<path transform="translate(779,632)" d="m0 0h2l2 20-2-2-2-11z" fill="#A35067"/>
<path transform="translate(398,586)" d="m0 0 2 3 2 8v6l-3-1v-5l-2-5z" fill="#913D52"/>
<path transform="translate(723,674)" d="m0 0 9 1 8-1-4 3-9 1-5-2z" fill="#913D52"/>
<path transform="translate(654,395)" d="m0 0h2l-2 5-6 12-2-2z" fill="#A45067"/>
<path transform="translate(230,397)" d="m0 0 1 3-4 7-4-1 1-4z" fill="#1E1015"/>
<path transform="translate(358,745)" d="m0 0 2 3 1 8v16l-3-2v-2h2z" fill="#873A4D"/>
<path transform="translate(388,392)" d="m0 0 1 4-3 10h-2l-1 2 1-6 2-9z" fill="#552A37"/>
<path transform="translate(744,328)" d="m0 0 3 1-4 3-2 6-1 7-2-2 1-9z" fill="#9E465E"/>
<path transform="translate(649,661)" d="m0 0 2 4-1 11-4 4-2-1 4-7z" fill="#913D52"/>
<path transform="translate(710,662)" d="m0 0 3 1v2h-2l-2 4-5 6-2-1 7-10z" fill="#923D53"/>
<path transform="translate(283,476)" d="m0 0 1 2-2 12-2 3-2-1 1-1 2-13z" fill="#622F3D"/>
<path transform="translate(220,374)" d="m0 0h12l1 2v7l-2-4v-4l-9 1v2l-4-1v-2z" fill="#572936"/>
<path transform="translate(453,675)" d="m0 0h3l-1 4-1-2-3 6 4-2-1 3-5 1-1-5 2-2z" fill="#8B3B50"/>
<path transform="translate(597,452)" d="m0 0h1v8l-2 8h-2l1-9z" fill="#9F465F"/>
<path transform="translate(548,409)" d="m0 0 2 1 2 7v11h-1l-2-13-2-1z" fill="#98495D"/>
<path transform="translate(396,365)" d="m0 0 1 3-4 9-3 2 3-10z" fill="#512935"/>
<path transform="translate(467,805)" d="m0 0 7 1 1 8-4-2z" fill="#4A2731"/>
<path transform="translate(580,447)" d="m0 0h2l-1 11h-2v5l-2-1z" fill="#A8596F"/>
<path transform="translate(757,630)" d="m0 0 2 3 1 11-1 2h-2z" fill="#99455B"/>
<path transform="translate(503,567)" d="m0 0h2v20h-2v-15l-1-3z" fill="#A04C63"/>
<path transform="translate(300,549)" d="m0 0h4l-1 7-2 3-2-3z" fill="#48222D"/>
<path transform="translate(445,544)" d="m0 0h11l2 5-1 4-2 1v-6l1-2-11-1z" fill="#5C2D3A"/>
<path transform="translate(573,454)" d="m0 0h1l1 12h2l1-3 1 4-3 4-2-4z" fill="#9C415A"/>
<path transform="translate(430,461)" d="m0 0h13v1l-12 1-1 10h-1v-11z" fill="#6F3243"/>
<path transform="translate(584,432)" d="m0 0h1l-1 10-1 5h-2l1-11z" fill="#9C415A"/>
<path transform="translate(521,442)" d="m0 0 2 4-3 8-2 4h-2l3-9z" fill="#94495B"/>
<path transform="translate(416,691)" d="m0 0h2l1 2 4 2v2l-6-1-3-3z" fill="#4E2833"/>
<path transform="translate(762,620)" d="m0 0h2l-2 4-4 4-1 7h-1v-8z" fill="#903C51"/>
<path transform="translate(229,395)" d="m0 0h5v7l-4-4-5 4 2-4z" fill="#351A22"/>
<path transform="translate(702,653)" d="m0 0 2 1-2 5-6 7v-3l5-7z" fill="#943E54"/>
<path transform="translate(678,627)" d="m0 0h16v2l-5 1-2-1h-10z" fill="#973F56"/>
<path transform="translate(606,623)" d="m0 0 2 1-1 4h-2l-1 5-4 3 2-5z" fill="#A35B6E"/>
<path transform="translate(235,410)" d="m0 0h2v4h4v4l-2-1 1-2-4 4h-2z" fill="#351A22"/>
<path transform="translate(171,624)" d="m0 0 6 2v2l-5-2z" fill="#763547"/>
<path transform="translate(569,819)" d="m0 0 1 2-3 4-2-1z" fill="#9C415A"/>
<path transform="translate(183,630)" d="m0 0 8 1v1l-8-1z" fill="#632F3E"/>
<path transform="translate(920,538)" d="m0 0 1 4-2 4z" fill="#C794A2"/>
<path transform="translate(391,758)" d="m0 0h1v8h-1z" fill="#9C415A"/>
<path transform="translate(390,750)" d="m0 0h1v8h-1z" fill="#9C415A"/>
<path transform="translate(389,742)" d="m0 0h1v8h-1z" fill="#9C415A"/>
<path transform="translate(202,632)" d="m0 0 4 1-5 1z" fill="#5C2D3A"/>
<path transform="translate(1e3 624)" d="m0 0h1l-1 7-1-3z" fill="#B47082"/>
<path transform="translate(386,770)" d="m0 0 1 3-2 2z" fill="#8E3C53"/>
<path transform="translate(1006,616)" d="m0 0h1v5h-1z" fill="#E9D7DC"/>
<path transform="translate(937,567)" d="m0 0h1v5h-1z" fill="#9C415A"/>
<path transform="translate(364,778)" d="m0 0 2 1-1 2z" fill="#963F56"/>
<path transform="translate(522,665)" d="m0 0 1 4z" fill="#9C415A"/>
<path transform="translate(588,664)" d="m0 0 1 4z" fill="#9C415A"/>
<path transform="translate(191,632)" d="m0 0 4 1z" fill="#963F56"/>
<path transform="translate(934,579)" d="m0 0 1 4z" fill="#9C415A"/>
<path transform="translate(950,576)" d="m0 0 1 4z" fill="#CC9FAB"/>
<path transform="translate(951,572)" d="m0 0 1 4z" fill="#CC9FAB"/>
<path transform="translate(936,572)" d="m0 0 1 4z" fill="#B47082"/>
<path transform="translate(954,556)" d="m0 0 1 4z" fill="#E4CED4"/>
<path transform="translate(392,769)" d="m0 0" fill="#5B2D3A"/>
<path transform="translate(523,662)" d="m0 0" fill="#9C415A"/>
<path transform="translate(524,659)" d="m0 0" fill="#BC7F90"/>
<path transform="translate(1015,638)" d="m0 0" fill="#DCBEC6"/>
<path transform="translate(655,638)" d="m0 0" fill="#9C415A"/>
<path transform="translate(1017,632)" d="m0 0" fill="#FDFDFD"/>
<path transform="translate(657,632)" d="m0 0" fill="#9C415A"/>
<path transform="translate(180,629)" d="m0 0 3 1z" fill="#9C415A"/>
<path transform="translate(849,627)" d="m0 0" fill="#9C415A"/>
<path transform="translate(850,624)" d="m0 0" fill="#9C415A"/>
<path transform="translate(940,623)" d="m0 0" fill="#DCBEC6"/>
<path transform="translate(1e3 621)" d="m0 0" fill="#BC7F90"/>
<path transform="translate(852,619)" d="m0 0" fill="#BC7F90"/>
<path transform="translate(853,616)" d="m0 0" fill="#BC7F90"/>
<path transform="translate(855,611)" d="m0 0" fill="#BC7F90"/>
<path transform="translate(856,608)" d="m0 0" fill="#BC7F90"/>
<path transform="translate(933,583)" d="m0 0" fill="#9C415A"/>
<path transform="translate(949,580)" d="m0 0" fill="#DCBEC6"/>
<path transform="translate(935,576)" d="m0 0" fill="#9C415A"/>
<path transform="translate(952,568)" d="m0 0" fill="#BC7F90"/>
<path transform="translate(953,563)" d="m0 0" fill="#DCBEC6"/>
<path transform="translate(921,535)" d="m0 0" fill="#9C415A"/>
<path transform="translate(570,817)" d="m0 0" fill="#9C415A"/>
<path transform="translate(565,816)" d="m0 0" fill="#CC9FAB"/>
<path transform="translate(361,775)" d="m0 0" fill="#9C415A"/>
<path transform="translate(585,677)" d="m0 0" fill="#CC9FAB"/>
<path transform="translate(586,674)" d="m0 0" fill="#9C415A"/>
<path transform="translate(535,673)" d="m0 0" fill="#9C415A"/>
<path transform="translate(587,671)" d="m0 0" fill="#9C415A"/>
<path transform="translate(651,670)" d="m0 0" fill="#9C415A"/>
<path transform="translate(536,668)" d="m0 0" fill="#9C415A"/>
<path transform="translate(537,666)" d="m0 0" fill="#9C415A"/>
<path transform="translate(553,656)" d="m0 0" fill="#CC9FAB"/>
<path transform="translate(554,653)" d="m0 0" fill="#FDFDFD"/>
<path transform="translate(1010,649)" d="m0 0" fill="#9C415A"/>
<path transform="translate(759,649)" d="m0 0" fill="#FDFDFD"/>
<path transform="translate(1011,647)" d="m0 0" fill="#9C415A"/>
<path transform="translate(704,647)" d="m0 0" fill="#9C415A"/>
<path transform="translate(1012,645)" d="m0 0" fill="#CC9FAB"/>
<path transform="translate(668,645)" d="m0 0" fill="#9C415A"/>
<path transform="translate(1013,643)" d="m0 0" fill="#CC9FAB"/>
<path transform="translate(654,642)" d="m0 0" fill="#9C415A"/>
<path transform="translate(1014,641)" d="m0 0" fill="#CC9FAB"/>
<path transform="translate(1016,636)" d="m0 0" fill="#FDFDFD"/>
<path transform="translate(656,635)" d="m0 0" fill="#9C415A"/>
<path transform="translate(1018,630)" d="m0 0" fill="#FDFDFD"/>
<path transform="translate(848,630)" d="m0 0" fill="#CC9FAB"/>
<path transform="translate(658,630)" d="m0 0" fill="#9C415A"/>
<path transform="translate(939,627)" d="m0 0" fill="#CC9FAB"/>
<path transform="translate(178,628)" d="m0 0 2 1z" fill="#9C415A"/>
<path transform="translate(1019,625)" d="m0 0" fill="#FDFDFD"/>
<path transform="translate(851,622)" d="m0 0" fill="#9C415A"/>
<path transform="translate(941,620)" d="m0 0" fill="#9C415A"/>
<path transform="translate(942,617)" d="m0 0" fill="#FDFDFD"/>
<path transform="translate(854,614)" d="m0 0" fill="#9C415A"/>
<path transform="translate(943,613)" d="m0 0" fill="#FDFDFD"/>
<path transform="translate(944,610)" d="m0 0" fill="#FDFDFD"/>
<path transform="translate(945,607)" d="m0 0" fill="#FDFDFD"/>
<path transform="translate(857,606)" d="m0 0" fill="#CC9FAB"/>
<path transform="translate(946,604)" d="m0 0" fill="#FDFDFD"/>
<path transform="translate(858,603)" d="m0 0" fill="#CC9FAB"/>
<path transform="translate(947,601)" d="m0 0" fill="#CC9FAB"/>
<path transform="translate(859,601)" d="m0 0" fill="#FDFDFD"/>
<path transform="translate(948,599)" d="m0 0" fill="#CC9FAB"/>
<path transform="translate(501,573)" d="m0 0" fill="#9C415A"/>
<path transform="translate(931,563)" d="m0 0" fill="#FDFDFD"/>
<path transform="translate(931,559)" d="m0 0" fill="#FDFDFD"/>
<path transform="translate(955,550)" d="m0 0" fill="#FDFDFD"/>
<path transform="translate(933,545)" d="m0 0" fill="#FDFDFD"/>
<path transform="translate(934,542)" d="m0 0" fill="#FDFDFD"/>
<path transform="translate(935,539)" d="m0 0" fill="#CC9FAB"/>
<path transform="translate(937,534)" d="m0 0" fill="#CC9FAB"/>
<path transform="translate(922,533)" d="m0 0" fill="#9C415A"/>
<path transform="translate(242,425)" d="m0 0" fill="#9C415A"/>
<path transform="translate(571,816)" d="m0 0" fill="#9C415A"/>
<path transform="translate(566,815)" d="m0 0" fill="#FDFDFD"/>
<path transform="translate(548,797)" d="m0 0" fill="#9C415A"/>
<path transform="translate(364,776)" d="m0 0" fill="#9C415A"/>
<path transform="translate(584,679)" d="m0 0" fill="#9C415A"/>
<path transform="translate(650,674)" d="m0 0" fill="#9C415A"/>
<path transform="translate(536,671)" d="m0 0" fill="#9C415A"/>
<path transform="translate(538,663)" d="m0 0" fill="#FDFDFD"/>
<path transform="translate(755,659)" d="m0 0" fill="#9C415A"/>
<path transform="translate(525,658)" d="m0 0" fill="#85394A"/>
<path transform="translate(757,656)" d="m0 0" fill="#9C415A"/>
<path transform="translate(808,655)" d="m0 0" fill="#FDFDFD"/>
<path transform="translate(758,654)" d="m0 0" fill="#9C415A"/>
<path transform="translate(1009,651)" d="m0 0" fill="#9C415A"/>
<path transform="translate(856,645)" d="m0 0" fill="#9C415A"/>
<path transform="translate(705,643)" d="m0 0" fill="#9C415A"/>
<path transform="translate(612,641)" d="m0 0" fill="#9C415A"/>
<path transform="translate(613,640)" d="m0 0" fill="#FDFDFD"/>
<path transform="translate(670,638)" d="m0 0" fill="#9C415A"/>
<path transform="translate(659,629)" d="m0 0" fill="#9C415A"/>
<path transform="translate(1018,628)" d="m0 0" fill="#FDFDFD"/>
<path transform="translate(170,623)" d="m0 0" fill="#9C415A"/>
<path transform="translate(168,622)" d="m0 0" fill="#9C415A"/>
<path transform="translate(832,621)" d="m0 0" fill="#9C415A"/>
<path transform="translate(167,621)" d="m0 0" fill="#9C415A"/>
<path transform="translate(1020,620)" d="m0 0" fill="#FDFDFD"/>
<path transform="translate(873,612)" d="m0 0" fill="#FDFDFD"/>
<path transform="translate(874,610)" d="m0 0" fill="#FDFDFD"/>
<path transform="translate(953,567)" d="m0 0" fill="#FDFDFD"/>
<path transform="translate(954,561)" d="m0 0" fill="#FDFDFD"/>
<path transform="translate(931,557)" d="m0 0" fill="#FDFDFD"/>
<path transform="translate(932,553)" d="m0 0" fill="#FDFDFD"/>
<path transform="translate(932,550)" d="m0 0" fill="#FDFDFD"/>
<path transform="translate(933,548)" d="m0 0" fill="#FDFDFD"/>
<path transform="translate(936,537)" d="m0 0" fill="#9C415A"/>
</svg>
